<svg width="194" height="219" viewBox="0 0 194 219" fill="none" xmlns="http://www.w3.org/2000/svg">
<path d="M0.876465 0.242342C65.0232 0.236711 129.164 0.23108 193.311 0.242342C189.78 40.137 186.306 80.0316 182.629 119.915C180.445 145.406 178.192 170.897 175.816 196.371C162.127 199.997 148.574 204.13 134.891 207.773C122.323 211.461 109.653 214.801 97.0797 218.461H96.708C84.7425 214.902 72.6586 211.771 60.6931 208.212C46.5709 204.406 32.5726 200.16 18.4447 196.371C16.6034 177.276 14.9423 158.171 13.3038 139.065C10.2124 103.766 6.8508 68.4883 3.87771 33.1829C2.84726 22.5574 2.10962 11.8982 0.876465 1.29531V0.242342ZM97.395 15.9806C97.2598 23.6442 97.4963 31.3134 97.2598 38.9714C75.2545 38.8925 53.2434 38.9545 31.238 38.977C31.6153 46.4154 32.612 53.803 33.6368 61.1795C54.1106 61.9396 74.6125 61.1513 95.0863 61.7651C77.1746 69.8003 59.0432 77.3682 41.0526 85.2345C39.5098 85.9215 37.8599 86.4395 36.4804 87.4418C36.6324 95.6122 37.95 103.737 38.53 111.891C49.4426 111.852 60.3496 111.677 71.2622 111.66C80.0069 111.615 88.7573 111.79 97.502 111.598C97.0853 125.033 97.6315 138.485 97.2204 151.921C91.3362 151.048 85.5251 149.736 79.6634 148.694C75.0405 147.686 70.3049 147.163 65.7496 145.839C65.102 139.392 64.6516 132.922 64.0772 126.469C62.7596 126.064 61.3631 126.103 60.0005 126.081C53.3898 126.12 46.7736 126.058 40.1573 126.16C40.8049 138.564 41.9198 150.952 43.8174 163.239C50.3379 164.939 56.8697 166.606 63.379 168.38C73.3512 171.094 83.4474 173.352 93.4365 176.021C94.6246 176.274 95.824 176.713 97.0571 176.612C97.7216 184.771 97.2092 192.981 97.3331 201.163C99.6361 200.791 101.9 200.222 104.124 199.535C123.032 194.4 141.918 189.169 160.815 183.983C161.756 176.55 162.195 169.067 162.938 161.617C164.903 138.97 166.885 116.322 168.946 93.6808C171.362 67.7788 173.451 41.8487 175.883 15.9468C149.717 15.9693 123.556 15.8961 97.395 15.9806Z" fill="#0170BA"/>
<path d="M97.3949 15.9804C123.556 15.8959 149.717 15.9691 175.883 15.9466C173.451 41.8485 171.362 67.7786 168.946 93.6806C166.885 116.322 164.903 138.97 162.938 161.617C162.195 169.066 161.756 176.55 160.815 183.983C141.918 189.169 123.032 194.4 104.124 199.535C101.9 200.222 99.6359 200.791 97.3329 201.162C97.209 192.981 97.7214 184.771 97.057 176.612C97.2259 176.578 97.5694 176.51 97.7383 176.477C115.324 172.062 132.79 167.203 150.336 162.63C152.555 137.742 155.015 112.865 156.575 87.9258C141.653 88.0047 126.726 87.9596 111.804 88.0216C109.631 88.0328 107.457 88.0216 105.295 87.8639C113.325 83.7309 121.771 80.4537 130.014 76.7655C137.926 73.1786 145.933 69.817 153.872 66.2977C155.404 65.5939 157.037 65.0083 158.383 63.9609C158.912 62.0183 158.884 59.9855 159.092 57.9978C159.548 51.6913 160.359 45.4185 160.663 39.1063C139.531 38.9374 118.398 39.0838 97.2597 38.9712C97.4962 31.3132 97.2597 23.644 97.3949 15.9804Z" fill="#29A9DF"/>
<path d="M97.5019 111.598C107.705 111.424 117.914 111.7 128.122 111.632C127.554 122.066 126.687 132.483 126.146 142.917C119.89 144.961 113.539 146.69 107.232 148.582C103.87 149.607 100.419 150.418 97.2203 151.921C97.6314 138.486 97.0852 125.034 97.5019 111.598Z" fill="#29A9DF"/>
<path d="M31.238 38.9771C53.2434 38.9545 75.2544 38.8926 97.2598 38.9714C97.547 63.1841 97.1866 87.3968 97.502 111.598C88.7572 111.79 80.0069 111.615 71.2622 111.66C60.3496 111.677 49.4426 111.852 38.53 111.891C37.95 103.738 36.6324 95.6122 36.4804 87.4419C37.8599 86.4396 39.5098 85.9215 41.0526 85.2346C59.0432 77.3682 77.1746 69.8004 95.0863 61.7651C74.6125 61.1514 54.1106 61.9397 33.6368 61.1795C32.612 53.8031 31.6153 46.4154 31.238 38.9771Z" fill="#CFCFCF"/>
<path d="M40.1572 126.159C46.7735 126.058 53.3897 126.12 60.0004 126.081C61.363 126.103 62.7595 126.064 64.0771 126.469C64.6515 132.922 65.1019 139.392 65.7495 145.839C70.3048 147.162 75.0404 147.686 79.6633 148.694C85.525 149.736 91.3361 151.048 97.2203 151.921C97.7834 160.097 96.798 168.329 97.7384 176.477C97.5694 176.511 97.226 176.578 97.057 176.612C95.8239 176.713 94.6245 176.274 93.4364 176.021C83.4473 173.352 73.3511 171.094 63.3789 168.38C56.8696 166.606 50.3378 164.939 43.8173 163.239C41.9197 150.952 40.8048 138.564 40.1572 126.159Z" fill="#CFCFCF"/>
<path d="M97.2597 38.9712C118.398 39.0838 139.531 38.9374 160.663 39.1063C160.359 45.4185 159.548 51.6913 159.092 57.9979C158.884 59.9855 158.912 62.0183 158.383 63.9609C157.037 65.0083 155.404 65.5939 153.872 66.2977C145.933 69.817 137.926 73.1786 130.014 76.7655C121.771 80.4537 113.325 83.7309 105.295 87.8639C107.457 88.0216 109.631 88.0328 111.804 88.0216C126.726 87.9596 141.653 88.0047 156.575 87.9259C155.015 112.865 152.555 137.742 150.336 162.63C132.79 167.203 115.324 172.062 97.7384 176.477C96.798 168.329 97.7834 160.097 97.2203 151.921C100.419 150.417 103.87 149.606 107.232 148.581C113.539 146.689 119.89 144.961 126.146 142.917C126.687 132.483 127.554 122.066 128.122 111.632C117.914 111.699 107.705 111.423 97.5019 111.598C97.1866 87.3966 97.5469 63.1839 97.2597 38.9712Z" fill="white"/>
</svg>
