<svg width="371" height="372" viewBox="0 0 371 372" fill="none" xmlns="http://www.w3.org/2000/svg">
<g filter="url(#filter0_d_320_549)">
<rect x="10" width="351" height="351" rx="10" fill="white"/>
<path d="M88.8765 30.2423C153.023 30.2367 217.164 30.2311 281.311 30.2423C277.78 70.137 274.306 110.032 270.629 149.915C268.445 175.406 266.192 200.897 263.816 226.371C250.127 229.997 236.574 234.13 222.891 237.773C210.323 241.461 197.653 244.801 185.08 248.461H184.708C172.742 244.902 160.659 241.771 148.693 238.212C134.571 234.406 120.573 230.16 106.445 226.371C104.603 207.276 102.942 188.171 101.304 169.065C98.2124 133.766 94.8508 98.4883 91.8777 63.1829C90.8473 52.5574 90.1096 41.8982 88.8765 31.2953V30.2423ZM185.395 45.9806C185.26 53.6442 185.496 61.3134 185.26 68.9714C163.254 68.8925 141.243 68.9545 119.238 68.977C119.615 76.4154 120.612 83.803 121.637 91.1795C142.111 91.9396 162.613 91.1513 183.086 91.7651C165.175 99.8003 147.043 107.368 129.053 115.234C127.51 115.921 125.86 116.439 124.48 117.442C124.632 125.612 125.95 133.737 126.53 141.891C137.443 141.852 148.35 141.677 159.262 141.66C168.007 141.615 176.757 141.79 185.502 141.598C185.085 155.033 185.631 168.485 185.22 181.921C179.336 181.048 173.525 179.736 167.663 178.694C163.04 177.686 158.305 177.163 153.75 175.839C153.102 169.392 152.652 162.922 152.077 156.469C150.76 156.064 149.363 156.103 148 156.081C141.39 156.12 134.774 156.058 128.157 156.16C128.805 168.564 129.92 180.952 131.817 193.239C138.338 194.939 144.87 196.606 151.379 198.38C161.351 201.094 171.447 203.352 181.437 206.021C182.625 206.274 183.824 206.713 185.057 206.612C185.722 214.771 185.209 222.981 185.333 231.163C187.636 230.791 189.9 230.222 192.124 229.535C211.032 224.4 229.918 219.169 248.815 213.983C249.756 206.55 250.195 199.067 250.938 191.617C252.903 168.97 254.885 146.322 256.946 123.681C259.362 97.7788 261.451 71.8487 263.884 45.9468C237.717 45.9693 211.556 45.8961 185.395 45.9806Z" fill="#0170BA"/>
<path d="M185.395 45.9804C211.556 45.8959 237.717 45.9691 263.883 45.9466C261.451 71.8485 259.362 97.7786 256.946 123.681C254.885 146.322 252.903 168.97 250.938 191.617C250.195 199.066 249.756 206.55 248.815 213.983C229.918 219.169 211.032 224.4 192.124 229.535C189.9 230.222 187.636 230.791 185.333 231.162C185.209 222.981 185.721 214.771 185.057 206.612C185.226 206.578 185.569 206.51 185.738 206.477C203.324 202.062 220.79 197.203 238.336 192.63C240.555 167.742 243.015 142.865 244.575 117.926C229.653 118.005 214.726 117.96 199.804 118.022C197.631 118.033 195.457 118.022 193.295 117.864C201.325 113.731 209.771 110.454 218.014 106.765C225.926 103.179 233.933 99.817 241.872 96.2977C243.404 95.5939 245.037 95.0083 246.383 93.9609C246.912 92.0183 246.884 89.9855 247.092 87.9978C247.548 81.6913 248.359 75.4185 248.663 69.1063C227.531 68.9374 206.398 69.0838 185.26 68.9712C185.496 61.3132 185.26 53.644 185.395 45.9804Z" fill="#29A9DF"/>
<path d="M185.502 141.598C195.705 141.424 205.914 141.7 216.122 141.632C215.554 152.066 214.687 162.483 214.146 172.917C207.89 174.961 201.539 176.69 195.232 178.582C191.87 179.607 188.419 180.418 185.22 181.921C185.631 168.486 185.085 155.034 185.502 141.598Z" fill="#29A9DF"/>
<path d="M119.238 68.9771C141.243 68.9545 163.254 68.8926 185.26 68.9714C185.547 93.1841 185.187 117.397 185.502 141.598C176.757 141.79 168.007 141.615 159.262 141.66C148.35 141.677 137.443 141.852 126.53 141.891C125.95 133.738 124.632 125.612 124.48 117.442C125.86 116.44 127.51 115.922 129.053 115.235C147.043 107.368 165.175 99.8004 183.086 91.7651C162.613 91.1514 142.111 91.9397 121.637 91.1795C120.612 83.8031 119.615 76.4154 119.238 68.9771Z" fill="#CFCFCF"/>
<path d="M128.157 156.159C134.773 156.058 141.39 156.12 148 156.081C149.363 156.103 150.759 156.064 152.077 156.469C152.651 162.922 153.102 169.392 153.749 175.839C158.305 177.162 163.04 177.686 167.663 178.694C173.525 179.736 179.336 181.048 185.22 181.921C185.783 190.097 184.798 198.329 185.738 206.477C185.569 206.511 185.226 206.578 185.057 206.612C183.824 206.713 182.625 206.274 181.436 206.021C171.447 203.352 161.351 201.094 151.379 198.38C144.87 196.606 138.338 194.939 131.817 193.239C129.92 180.952 128.805 168.564 128.157 156.159Z" fill="#CFCFCF"/>
<path d="M185.26 68.9712C206.398 69.0838 227.531 68.9374 248.663 69.1063C248.359 75.4185 247.548 81.6913 247.092 87.9979C246.884 89.9855 246.912 92.0183 246.383 93.9609C245.037 95.0083 243.404 95.5939 241.872 96.2977C233.933 99.817 225.926 103.179 218.014 106.765C209.771 110.454 201.325 113.731 193.295 117.864C195.457 118.022 197.631 118.033 199.804 118.022C214.726 117.96 229.653 118.005 244.575 117.926C243.015 142.865 240.555 167.742 238.336 192.63C220.79 197.203 203.324 202.062 185.738 206.477C184.798 198.329 185.783 190.097 185.22 181.921C188.419 180.417 191.87 179.606 195.232 178.581C201.539 176.689 207.89 174.961 214.146 172.917C214.687 162.483 215.554 152.066 216.122 141.632C205.914 141.699 195.705 141.423 185.502 141.598C185.187 117.397 185.547 93.1839 185.26 68.9712Z" fill="white"/>
<path d="M158.314 289.791C158.314 287.869 158.744 286.151 159.602 284.639C160.48 283.109 161.665 281.923 163.158 281.083C164.67 280.225 166.36 279.795 168.226 279.795C170.41 279.795 172.324 280.355 173.966 281.475C175.609 282.595 176.757 284.145 177.41 286.123H172.902C172.454 285.19 171.82 284.49 170.998 284.023C170.196 283.557 169.262 283.323 168.198 283.323C167.06 283.323 166.042 283.594 165.146 284.135C164.269 284.658 163.578 285.405 163.074 286.375C162.589 287.346 162.346 288.485 162.346 289.791C162.346 291.079 162.589 292.218 163.074 293.207C163.578 294.178 164.269 294.934 165.146 295.475C166.042 295.998 167.06 296.259 168.198 296.259C169.262 296.259 170.196 296.026 170.998 295.559C171.82 295.074 172.454 294.365 172.902 293.431H177.41C176.757 295.429 175.609 296.987 173.966 298.107C172.342 299.209 170.429 299.759 168.226 299.759C166.36 299.759 164.67 299.339 163.158 298.499C161.665 297.641 160.48 296.455 159.602 294.943C158.744 293.431 158.314 291.714 158.314 289.791ZM188.627 299.787C187.264 299.787 186.032 299.554 184.931 299.087C183.848 298.621 182.989 297.949 182.355 297.071C181.72 296.194 181.393 295.158 181.375 293.963H185.575C185.631 294.766 185.911 295.401 186.415 295.867C186.937 296.334 187.647 296.567 188.543 296.567C189.457 296.567 190.176 296.353 190.699 295.923C191.221 295.475 191.483 294.897 191.483 294.187C191.483 293.609 191.305 293.133 190.951 292.759C190.596 292.386 190.148 292.097 189.607 291.891C189.084 291.667 188.356 291.425 187.423 291.163C186.153 290.79 185.117 290.426 184.315 290.071C183.531 289.698 182.849 289.147 182.271 288.419C181.711 287.673 181.431 286.683 181.431 285.451C181.431 284.294 181.72 283.286 182.299 282.427C182.877 281.569 183.689 280.915 184.735 280.467C185.78 280.001 186.975 279.767 188.319 279.767C190.335 279.767 191.968 280.262 193.219 281.251C194.488 282.222 195.188 283.585 195.319 285.339H191.007C190.969 284.667 190.68 284.117 190.139 283.687C189.616 283.239 188.916 283.015 188.039 283.015C187.273 283.015 186.657 283.211 186.191 283.603C185.743 283.995 185.519 284.565 185.519 285.311C185.519 285.834 185.687 286.273 186.023 286.627C186.377 286.963 186.807 287.243 187.311 287.467C187.833 287.673 188.561 287.915 189.495 288.195C190.764 288.569 191.8 288.942 192.603 289.315C193.405 289.689 194.096 290.249 194.675 290.995C195.253 291.742 195.543 292.722 195.543 293.935C195.543 294.981 195.272 295.951 194.731 296.847C194.189 297.743 193.396 298.462 192.351 299.003C191.305 299.526 190.064 299.787 188.627 299.787ZM206.809 299.787C205.446 299.787 204.214 299.554 203.113 299.087C202.03 298.621 201.172 297.949 200.537 297.071C199.902 296.194 199.576 295.158 199.557 293.963H203.757C203.813 294.766 204.093 295.401 204.597 295.867C205.12 296.334 205.829 296.567 206.725 296.567C207.64 296.567 208.358 296.353 208.881 295.923C209.404 295.475 209.665 294.897 209.665 294.187C209.665 293.609 209.488 293.133 209.133 292.759C208.778 292.386 208.33 292.097 207.789 291.891C207.266 291.667 206.538 291.425 205.605 291.163C204.336 290.79 203.3 290.426 202.497 290.071C201.713 289.698 201.032 289.147 200.453 288.419C199.893 287.673 199.613 286.683 199.613 285.451C199.613 284.294 199.902 283.286 200.481 282.427C201.06 281.569 201.872 280.915 202.917 280.467C203.962 280.001 205.157 279.767 206.501 279.767C208.517 279.767 210.15 280.262 211.401 281.251C212.67 282.222 213.37 283.585 213.501 285.339H209.189C209.152 284.667 208.862 284.117 208.321 283.687C207.798 283.239 207.098 283.015 206.221 283.015C205.456 283.015 204.84 283.211 204.373 283.603C203.925 283.995 203.701 284.565 203.701 285.311C203.701 285.834 203.869 286.273 204.205 286.627C204.56 286.963 204.989 287.243 205.493 287.467C206.016 287.673 206.744 287.915 207.677 288.195C208.946 288.569 209.982 288.942 210.785 289.315C211.588 289.689 212.278 290.249 212.857 290.995C213.436 291.742 213.725 292.722 213.725 293.935C213.725 294.981 213.454 295.951 212.913 296.847C212.372 297.743 211.578 298.462 210.533 299.003C209.488 299.526 208.246 299.787 206.809 299.787Z" fill="#212529"/>
</g>
<defs>
<filter id="filter0_d_320_549" x="0" y="0" width="371" height="372" filterUnits="userSpaceOnUse" color-interpolation-filters="sRGB">
<feFlood flood-opacity="0" result="BackgroundImageFix"/>
<feColorMatrix in="SourceAlpha" type="matrix" values="0 0 0 0 0 0 0 0 0 0 0 0 0 0 0 0 0 0 127 0" result="hardAlpha"/>
<feOffset dy="11"/>
<feGaussianBlur stdDeviation="5"/>
<feComposite in2="hardAlpha" operator="out"/>
<feColorMatrix type="matrix" values="0 0 0 0 0 0 0 0 0 0 0 0 0 0 0 0 0 0 0.25 0"/>
<feBlend mode="normal" in2="BackgroundImageFix" result="effect1_dropShadow_320_549"/>
<feBlend mode="normal" in="SourceGraphic" in2="effect1_dropShadow_320_549" result="shape"/>
</filter>
</defs>
</svg>
