<svg width="195" height="191" viewBox="0 0 195 191" fill="none" xmlns="http://www.w3.org/2000/svg">
<path fill-rule="evenodd" clip-rule="evenodd" d="M97.5 0.760742C43.7754 0.760742 0.260864 44.3136 0.260864 98.0856C0.260864 141.152 28.0956 177.527 66.7481 190.423C71.6101 191.274 73.4333 188.354 73.4333 185.8C73.4333 183.488 73.3118 175.824 73.3118 167.673C48.8804 172.174 42.5599 161.712 40.6151 156.237C39.5212 153.439 34.7808 144.802 30.6481 142.49C27.2447 140.665 22.3828 136.164 30.5265 136.042C38.1841 135.921 43.6538 143.098 45.4771 146.018C54.2286 160.739 68.2067 156.602 73.798 154.047C74.6488 147.721 77.2013 143.463 79.9969 141.03C58.3612 138.597 35.7531 130.203 35.7531 92.9761C35.7531 82.392 39.5212 73.6328 45.7202 66.82C44.7478 64.3869 41.3444 54.4111 46.6925 41.0289C46.6925 41.0289 54.8363 38.4741 73.4333 51.0047C81.2124 48.8149 89.4778 47.72 97.7431 47.72C106.008 47.72 114.274 48.8149 122.053 51.0047C140.65 38.3525 148.794 41.0289 148.794 41.0289C154.142 54.4111 150.738 64.3869 149.766 66.82C155.965 73.6328 159.733 82.2704 159.733 92.9761C159.733 130.325 137.003 138.597 115.368 141.03C118.893 144.072 121.931 149.911 121.931 159.035C121.931 172.053 121.81 182.515 121.81 185.8C121.81 188.354 123.633 191.396 128.495 190.423C166.904 177.527 194.739 141.03 194.739 98.0856C194.739 44.3136 151.225 0.760742 97.5 0.760742Z" fill="#1B1F23"/>
</svg>
