<svg width="375" height="376" viewBox="0 0 375 376" fill="none" xmlns="http://www.w3.org/2000/svg">
<g filter="url(#filter0_d_320_565)">
<rect x="10" width="355" height="355" rx="10" fill="white"/>
<path d="M149.496 287.445C149.048 286.624 148.432 285.998 147.648 285.569C146.864 285.14 145.949 284.925 144.904 284.925C143.747 284.925 142.72 285.186 141.824 285.709C140.928 286.232 140.228 286.978 139.724 287.949C139.22 288.92 138.968 290.04 138.968 291.309C138.968 292.616 139.22 293.754 139.724 294.725C140.247 295.696 140.965 296.442 141.88 296.965C142.795 297.488 143.859 297.749 145.072 297.749C146.565 297.749 147.788 297.357 148.74 296.573C149.692 295.77 150.317 294.66 150.616 293.241H143.896V290.245H154.48V293.661C154.219 295.024 153.659 296.284 152.8 297.441C151.941 298.598 150.831 299.532 149.468 300.241C148.124 300.932 146.612 301.277 144.932 301.277C143.047 301.277 141.339 300.857 139.808 300.017C138.296 299.158 137.101 297.973 136.224 296.461C135.365 294.949 134.936 293.232 134.936 291.309C134.936 289.386 135.365 287.669 136.224 286.157C137.101 284.626 138.296 283.441 139.808 282.601C141.339 281.742 143.037 281.313 144.904 281.313C147.107 281.313 149.02 281.854 150.644 282.937C152.268 284.001 153.388 285.504 154.004 287.445H149.496ZM162.42 281.565V301.109H158.5V281.565H162.42ZM180.713 281.565V284.729H175.505V301.109H171.585V284.729H166.377V281.565H180.713ZM200.905 281.565V301.109H196.985V292.793H188.613V301.109H184.693V281.565H188.613V289.601H196.985V281.565H200.905ZM209.748 281.565V293.661C209.748 294.986 210.093 296.004 210.784 296.713C211.474 297.404 212.445 297.749 213.696 297.749C214.965 297.749 215.945 297.404 216.636 296.713C217.326 296.004 217.672 294.986 217.672 293.661V281.565H221.62V293.633C221.62 295.294 221.256 296.704 220.528 297.861C219.818 299 218.857 299.858 217.644 300.437C216.449 301.016 215.114 301.305 213.64 301.305C212.184 301.305 210.858 301.016 209.664 300.437C208.488 299.858 207.554 299 206.864 297.861C206.173 296.704 205.828 295.294 205.828 293.633V281.565H209.748ZM237.615 291.085C238.717 291.29 239.622 291.841 240.331 292.737C241.041 293.633 241.395 294.66 241.395 295.817C241.395 296.862 241.134 297.786 240.611 298.589C240.107 299.373 239.37 299.989 238.399 300.437C237.429 300.885 236.281 301.109 234.955 301.109H226.527V281.565H234.591C235.917 281.565 237.055 281.78 238.007 282.209C238.978 282.638 239.706 283.236 240.191 284.001C240.695 284.766 240.947 285.634 240.947 286.605C240.947 287.744 240.639 288.696 240.023 289.461C239.426 290.226 238.623 290.768 237.615 291.085ZM230.447 289.629H234.031C234.965 289.629 235.683 289.424 236.187 289.013C236.691 288.584 236.943 287.977 236.943 287.193C236.943 286.409 236.691 285.802 236.187 285.373C235.683 284.944 234.965 284.729 234.031 284.729H230.447V289.629ZM234.395 297.917C235.347 297.917 236.085 297.693 236.607 297.245C237.149 296.797 237.419 296.162 237.419 295.341C237.419 294.501 237.139 293.848 236.579 293.381C236.019 292.896 235.263 292.653 234.311 292.653H230.447V297.917H234.395Z" fill="#212529"/>
<path fill-rule="evenodd" clip-rule="evenodd" d="M187 88C145.563 88 112 121.723 112 163.359C112 196.705 133.469 224.871 163.281 234.856C167.031 235.515 168.437 233.255 168.437 231.276C168.437 229.487 168.344 223.552 168.344 217.241C149.5 220.726 144.625 212.625 143.125 208.386C142.281 206.22 138.625 199.531 135.438 197.742C132.813 196.329 129.062 192.843 135.344 192.749C141.25 192.655 145.469 198.213 146.875 200.473C153.625 211.872 164.406 208.669 168.719 206.691C169.375 201.792 171.344 198.495 173.5 196.611C156.812 194.727 139.375 188.228 139.375 159.403C139.375 151.207 142.281 144.425 147.062 139.15C146.312 137.266 143.687 129.542 147.812 119.18C147.812 119.18 154.094 117.202 168.437 126.904C174.437 125.209 180.813 124.361 187.188 124.361C193.563 124.361 199.937 125.209 205.937 126.904C220.281 117.107 226.563 119.18 226.563 119.18C230.688 129.542 228.062 137.266 227.312 139.15C232.094 144.425 235 151.113 235 159.403C235 188.322 217.469 194.727 200.781 196.611C203.5 198.966 205.844 203.488 205.844 210.553C205.844 220.632 205.75 228.733 205.75 231.276C205.75 233.255 207.156 235.61 210.906 234.856C240.531 224.871 262 196.611 262 163.359C262 121.723 228.438 88 187 88Z" fill="#1B1F23"/>
</g>
<defs>
<filter id="filter0_d_320_565" x="0" y="0" width="375" height="376" filterUnits="userSpaceOnUse" color-interpolation-filters="sRGB">
<feFlood flood-opacity="0" result="BackgroundImageFix"/>
<feColorMatrix in="SourceAlpha" type="matrix" values="0 0 0 0 0 0 0 0 0 0 0 0 0 0 0 0 0 0 127 0" result="hardAlpha"/>
<feOffset dy="11"/>
<feGaussianBlur stdDeviation="5"/>
<feComposite in2="hardAlpha" operator="out"/>
<feColorMatrix type="matrix" values="0 0 0 0 0 0 0 0 0 0 0 0 0 0 0 0 0 0 0.25 0"/>
<feBlend mode="normal" in2="BackgroundImageFix" result="effect1_dropShadow_320_565"/>
<feBlend mode="normal" in="SourceGraphic" in2="effect1_dropShadow_320_565" result="shape"/>
</filter>
</defs>
</svg>
