<svg width="30" height="32" viewBox="0 0 30 32" fill="none" xmlns="http://www.w3.org/2000/svg">
<g clip-path="url(#clip0_334_182)">
<path d="M10.0083 24.8375C10.0083 24.9625 9.87597 25.0625 9.70907 25.0625C9.51915 25.0812 9.38678 24.9812 9.38678 24.8375C9.38678 24.7125 9.51915 24.6125 9.68605 24.6125C9.8587 24.5938 10.0083 24.6938 10.0083 24.8375ZM8.21847 24.5562C8.17818 24.6812 8.29329 24.825 8.46594 24.8625C8.61558 24.925 8.78824 24.8625 8.82277 24.7375C8.8573 24.6125 8.74795 24.4688 8.57529 24.4125C8.42566 24.3687 8.25876 24.4312 8.21847 24.5562ZM10.7623 24.45C10.5954 24.4938 10.4803 24.6125 10.4975 24.7563C10.5148 24.8813 10.6644 24.9625 10.8371 24.9188C11.004 24.875 11.1191 24.7563 11.1018 24.6313C11.0846 24.5125 10.9292 24.4313 10.7623 24.45ZM14.5492 0.5C6.56673 0.5 0.460449 7.08125 0.460449 15.75C0.460449 22.6812 4.47758 28.6125 10.2155 30.7C10.9522 30.8438 11.2112 30.35 11.2112 29.9438C11.2112 29.5562 11.1939 27.4188 11.1939 26.1063C11.1939 26.1063 7.16527 27.0437 6.31925 24.2437C6.31925 24.2437 5.66316 22.425 4.7193 21.9562C4.7193 21.9562 3.40136 20.975 4.81139 20.9937C4.81139 20.9937 6.24443 21.1188 7.0329 22.6063C8.29329 25.0188 10.4054 24.325 11.2284 23.9125C11.3608 22.9125 11.7349 22.2188 12.1493 21.8062C8.93212 21.4187 5.68618 20.9125 5.68618 14.9C5.68618 13.1812 6.12357 12.3188 7.04441 11.2188C6.89477 10.8125 6.40558 9.1375 7.19404 6.975C8.39688 6.56875 11.1651 8.6625 11.1651 8.6625C12.3162 8.3125 13.5535 8.13125 14.7794 8.13125C16.0053 8.13125 17.2426 8.3125 18.3937 8.6625C18.3937 8.6625 21.1619 6.5625 22.3648 6.975C23.1532 9.14375 22.664 10.8125 22.5144 11.2188C23.4352 12.325 23.9993 13.1875 23.9993 14.9C23.9993 20.9312 20.6094 21.4125 17.3923 21.8062C17.9218 22.3 18.3707 23.2375 18.3707 24.7062C18.3707 26.8125 18.3534 29.4187 18.3534 29.9312C18.3534 30.3375 18.6181 30.8312 19.349 30.6875C25.1043 28.6125 29.0063 22.6812 29.0063 15.75C29.0063 7.08125 22.5317 0.5 14.5492 0.5ZM6.05451 22.0562C5.97969 22.1187 5.99696 22.2625 6.0948 22.3813C6.18688 22.4813 6.31925 22.525 6.39407 22.4438C6.46889 22.3813 6.45162 22.2375 6.35378 22.1187C6.2617 22.0187 6.12933 21.975 6.05451 22.0562ZM5.43295 21.55C5.39266 21.6312 5.45021 21.7313 5.56532 21.7938C5.6574 21.8563 5.77251 21.8375 5.81279 21.75C5.85308 21.6688 5.79553 21.5688 5.68042 21.5063C5.56532 21.4688 5.47324 21.4875 5.43295 21.55ZM7.29764 23.775C7.20555 23.8562 7.24008 24.0438 7.37245 24.1625C7.50482 24.3062 7.67173 24.325 7.74654 24.225C7.82136 24.1438 7.78683 23.9562 7.67173 23.8375C7.54511 23.6938 7.37245 23.675 7.29764 23.775ZM6.64154 22.8563C6.54946 22.9188 6.54946 23.0813 6.64154 23.225C6.73363 23.3687 6.88902 23.4312 6.96383 23.3687C7.05592 23.2875 7.05592 23.125 6.96383 22.9813C6.88326 22.8375 6.73363 22.775 6.64154 22.8563Z" fill="black"/>
</g>
<defs>
<clipPath id="clip0_334_182">
<rect width="29.4667" height="32" fill="white"/>
</clipPath>
</defs>
</svg>
