<svg width="196" height="222" viewBox="0 0 196 222" fill="none" xmlns="http://www.w3.org/2000/svg">
<path d="M18.4492 198.749L0.786377 0.580078H195.078L177.415 198.749L97.7166 221.15" fill="#E34F26"/>
<path d="M98.1477 203.918L162.337 186.256L177.415 16.52H98.1477" fill="#EF652A"/>
<path d="M98.1474 90.1875H65.8373L63.6833 65.201H98.1474V41.0762H97.7166H36.9736L37.4044 47.5382L43.4356 114.743H98.1474V90.1875ZM98.1474 153.515H97.7166L70.5761 146.192L68.8529 126.806H55.9289H44.7281L47.7437 165.147L97.7166 178.932H98.1474V153.515Z" fill="#EBEBEB"/>
<path d="M97.7166 90.1875V114.743H127.873L124.857 146.192L97.7166 153.515V178.932L147.689 165.147L148.12 160.839L153.721 96.6495L154.582 90.1875H147.689H97.7166ZM97.7166 41.0762V56.1542V65.201H156.736L157.167 60.0314L158.459 47.5382L158.89 41.0762H97.7166Z" fill="white"/>
</svg>
