<svg width="375" height="376" viewBox="0 0 375 376" fill="none" xmlns="http://www.w3.org/2000/svg">
<g filter="url(#filter0_d_320_548)">
<rect x="10" width="355" height="355" rx="10" fill="white"/>
<path d="M103.449 228.748L85.7864 30.5801H280.078L262.415 228.748L182.717 251.15" fill="#E34F26"/>
<path d="M183.148 233.918L247.337 216.256L262.415 46.52H183.148" fill="#EF652A"/>
<path d="M183.147 120.187H150.837L148.683 95.201H183.147V71.0762H182.717H121.974L122.404 77.5382L128.436 144.743H183.147V120.187ZM183.147 183.515H182.717L155.576 176.192L153.853 156.806H140.929H129.728L132.744 195.147L182.717 208.932H183.147V183.515Z" fill="#EBEBEB"/>
<path d="M182.717 120.187V144.743H212.873L209.857 176.192L182.717 183.515V208.932L232.689 195.147L233.12 190.839L238.721 126.649L239.582 120.187H232.689H182.717ZM182.717 71.0762V86.1542V95.201H241.736L242.167 90.0314L243.459 77.5382L243.89 71.0762H182.717Z" fill="white"/>
<path d="M162.201 283.108V302.652H158.281V294.336H149.909V302.652H145.989V283.108H149.909V291.144H158.281V283.108H162.201ZM180.479 283.108V286.272H175.271V302.652H171.351V286.272H166.143V283.108H180.479ZM205.767 283.108V302.652H201.847V289.94L196.611 302.652H193.643L188.379 289.94V302.652H184.459V283.108H188.911L195.127 297.64L201.343 283.108H205.767ZM214.683 299.544H221.123V302.652H210.763V283.108H214.683V299.544Z" fill="#212529"/>
</g>
<defs>
<filter id="filter0_d_320_548" x="0" y="0" width="375" height="376" filterUnits="userSpaceOnUse" color-interpolation-filters="sRGB">
<feFlood flood-opacity="0" result="BackgroundImageFix"/>
<feColorMatrix in="SourceAlpha" type="matrix" values="0 0 0 0 0 0 0 0 0 0 0 0 0 0 0 0 0 0 127 0" result="hardAlpha"/>
<feOffset dy="11"/>
<feGaussianBlur stdDeviation="5"/>
<feComposite in2="hardAlpha" operator="out"/>
<feColorMatrix type="matrix" values="0 0 0 0 0 0 0 0 0 0 0 0 0 0 0 0 0 0 0.25 0"/>
<feBlend mode="normal" in2="BackgroundImageFix" result="effect1_dropShadow_320_548"/>
<feBlend mode="normal" in="SourceGraphic" in2="effect1_dropShadow_320_548" result="shape"/>
</filter>
</defs>
</svg>
