<svg width="191" height="191" viewBox="0 0 191 191" fill="none" xmlns="http://www.w3.org/2000/svg">
<path d="M14.6234 48.4911C-1.73466 72.0011 0.30175 102.592 12.7976 127.575C13.0942 128.174 13.4057 128.763 13.7127 129.351L14.2971 130.477L14.662 131.125L15.3131 132.291C15.7017 132.975 16.0992 133.656 16.5056 134.336L17.1863 135.458C17.6372 136.186 18.0985 136.905 18.5702 137.623L19.1605 138.534C19.8116 139.505 20.4775 140.475 21.1657 141.428L21.2236 141.502L21.5617 141.958C22.1565 142.779 22.7691 143.589 23.389 144.389L24.0772 145.265C24.6305 145.96 25.1926 146.651 25.7651 147.34L26.4103 148.111C27.1786 149.016 27.9632 149.916 28.7626 150.798L28.8116 150.847L28.902 150.948C29.6837 151.801 30.4831 152.634 31.2929 153.468L32.0597 154.241C32.6871 154.873 33.3249 155.494 33.9686 156.113L34.7502 156.854C35.6105 157.665 36.4796 158.46 37.3666 159.238L37.4081 159.27L37.8634 159.659C38.6451 160.335 39.4401 161.007 40.241 161.666L41.2258 162.45C41.8799 162.975 42.5414 163.491 43.2074 163.999L44.2664 164.804C45.002 165.345 45.7421 165.878 46.4897 166.398L47.2995 166.972L47.5219 167.131C48.2309 167.619 48.9562 168.089 49.6815 168.559L50.6159 169.182C51.7283 169.885 52.8555 170.581 53.9961 171.253L54.9305 171.779C55.7685 172.263 56.6124 172.738 57.4667 173.202C57.9295 173.451 58.4041 173.687 58.8698 173.926C59.4735 174.242 60.0727 174.562 60.6867 174.869L61.1064 175.072L61.8495 175.431C62.8002 175.885 63.7584 176.331 64.7269 176.761L65.335 177.034C66.4444 177.519 67.5628 177.985 68.6915 178.43L69.5087 178.752C70.5529 179.154 71.6119 179.551 72.6753 179.925L73.0728 180.063C74.2401 180.471 75.4177 180.849 76.6043 181.218L77.4571 181.474C78.6644 181.837 79.8584 182.271 81.1028 182.501C160.214 196.928 183.195 134.961 183.195 134.961C163.894 160.105 129.636 166.738 97.176 159.353C95.9465 159.076 94.754 158.692 93.5541 158.337L92.6509 158.063C91.4791 157.704 90.3178 157.326 89.1624 156.928L88.6833 156.755C87.6481 156.391 86.6262 156.007 85.6072 155.614L84.744 155.275C83.6286 154.834 82.5192 154.374 81.4231 153.894L80.7601 153.6C79.8183 153.173 78.8869 152.743 77.9584 152.296L77.1486 151.908C76.4203 151.553 75.6995 151.177 74.9817 150.806C74.5011 150.552 74.0117 150.313 73.5356 150.049C72.6575 149.579 71.7973 149.091 70.9385 148.593L70.0619 148.103C68.9214 147.433 67.7956 146.737 66.6803 146.031L65.7681 145.423C64.9598 144.903 64.1544 144.372 63.3609 143.823L62.5867 143.279C61.8213 142.737 61.0634 142.19 60.3115 141.634L59.3044 140.871C58.6147 140.345 57.9295 139.814 57.2516 139.267L56.3365 138.532C55.4733 137.822 54.622 137.11 53.7795 136.377L53.4992 136.141C52.5885 135.342 51.6956 134.522 50.8116 133.699L50.0537 132.97C49.3997 132.347 48.756 131.72 48.1226 131.076L47.3662 130.321C46.5608 129.497 45.7703 128.662 44.9961 127.815L44.8789 127.69C44.0602 126.794 43.2593 125.879 42.4747 124.955L41.8458 124.208C41.2614 123.503 40.6815 122.79 40.1149 122.069L39.4816 121.28C38.8008 120.396 38.1349 119.516 37.4837 118.619C19.463 94.0368 12.9874 60.1341 27.3907 32.2917M65.4032 28.6817C53.5719 45.7057 54.2156 68.4963 63.444 86.5007C64.9909 89.519 66.7307 92.4483 68.6766 95.2352C70.449 97.7759 72.4143 100.799 74.7666 102.839C75.6194 103.778 76.5108 104.695 77.4215 105.595L78.1216 106.285C79.0055 107.142 79.9029 107.985 80.8328 108.803L80.9426 108.898L80.9693 108.925C81.9971 109.827 83.0576 110.691 84.1359 111.546L84.8552 112.106C85.9365 112.936 87.0385 113.748 88.1672 114.525L88.2636 114.598C88.7619 114.942 89.2692 115.263 89.7749 115.595L90.4913 116.068C91.2982 116.586 92.1154 117.09 92.946 117.573L93.2946 117.775C94.0109 118.187 94.7362 118.594 95.4644 118.988L96.2372 119.39C96.74 119.653 97.2428 119.921 97.7545 120.176L97.9844 120.28C99.0271 120.793 100.079 121.289 101.152 121.756L101.853 122.044C102.711 122.409 103.579 122.765 104.448 123.097L105.561 123.505C106.351 123.798 107.145 124.065 107.944 124.334L109.022 124.679C110.16 125.032 111.284 125.479 112.469 125.676C173.551 135.796 187.653 88.7655 187.653 88.7655C174.942 107.072 150.325 115.808 124.056 108.989C122.889 108.682 121.739 108.35 120.596 107.989L119.556 107.652C118.743 107.39 117.936 107.111 117.137 106.819L116.045 106.412C115.167 106.074 114.301 105.727 113.441 105.362L112.739 105.066C111.661 104.597 110.599 104.102 109.553 103.584C109.015 103.322 108.485 103.044 107.954 102.771L107.032 102.297C106.353 101.929 105.676 101.546 105.01 101.155L104.527 100.88C103.699 100.398 102.885 99.8998 102.078 99.3851L101.339 98.8927C100.807 98.5486 100.276 98.1971 99.7538 97.8441C98.6281 97.0669 97.532 96.2541 96.4523 95.4295L95.7092 94.8436C84.2115 85.7665 75.0959 73.3582 70.7635 59.2902C66.222 44.7015 67.2009 28.3242 75.0692 15.0319M108.112 13.8824C101.138 24.1461 100.452 36.8926 105.292 48.2271C110.396 60.2602 120.852 69.6977 133.057 74.1754C133.56 74.3608 134.064 74.5269 134.573 74.7005L135.242 74.9126C135.961 75.138 136.675 75.4005 137.418 75.5414C171.146 82.0585 180.294 58.2341 182.728 54.7264C174.716 66.2641 161.248 69.0332 144.724 65.0227C143.419 64.7068 141.985 64.2351 140.727 63.7887C139.113 63.2132 137.523 62.5576 135.979 61.8175C133.045 60.407 130.248 58.6969 127.656 56.7391C112.87 45.5188 103.684 24.1179 113.332 6.68896" fill="#0868AC"/>
</svg>
