<svg width="375" height="376" viewBox="0 0 375 376" fill="none" xmlns="http://www.w3.org/2000/svg">
<g filter="url(#filter0_d_321_695)">
<rect x="10" width="355" height="355" rx="10" fill="white"/>
<path d="M150.116 281.565V295.285C150.116 297.189 149.565 298.673 148.464 299.737C147.363 300.782 145.888 301.305 144.04 301.305C142.173 301.305 140.661 300.764 139.504 299.681C138.365 298.598 137.796 297.086 137.796 295.145H141.716C141.735 295.985 141.931 296.638 142.304 297.105C142.696 297.572 143.256 297.805 143.984 297.805C144.693 297.805 145.235 297.581 145.608 297.133C145.981 296.685 146.168 296.069 146.168 295.285V281.565H150.116ZM170.369 304.553L167.401 300.997C166.579 301.202 165.739 301.305 164.881 301.305C163.051 301.305 161.371 300.876 159.841 300.017C158.31 299.158 157.097 297.973 156.201 296.461C155.305 294.93 154.857 293.204 154.857 291.281C154.857 289.377 155.305 287.669 156.201 286.157C157.097 284.626 158.31 283.432 159.841 282.573C161.371 281.714 163.051 281.285 164.881 281.285C166.729 281.285 168.409 281.714 169.921 282.573C171.451 283.432 172.655 284.626 173.533 286.157C174.429 287.669 174.877 289.377 174.877 291.281C174.877 293.017 174.503 294.604 173.757 296.041C173.029 297.46 172.03 298.617 170.761 299.513L175.241 304.553H170.369ZM158.889 291.281C158.889 292.588 159.141 293.736 159.645 294.725C160.149 295.714 160.849 296.48 161.745 297.021C162.659 297.544 163.705 297.805 164.881 297.805C166.057 297.805 167.093 297.544 167.989 297.021C168.885 296.48 169.585 295.714 170.089 294.725C170.593 293.736 170.845 292.588 170.845 291.281C170.845 289.974 170.593 288.836 170.089 287.865C169.585 286.876 168.885 286.12 167.989 285.597C167.093 285.074 166.057 284.813 164.881 284.813C163.705 284.813 162.659 285.074 161.745 285.597C160.849 286.12 160.149 286.876 159.645 287.865C159.141 288.836 158.889 289.974 158.889 291.281ZM182.832 281.565V293.661C182.832 294.986 183.177 296.004 183.868 296.713C184.559 297.404 185.529 297.749 186.78 297.749C188.049 297.749 189.029 297.404 189.72 296.713C190.411 296.004 190.756 294.986 190.756 293.661V281.565H194.704V293.633C194.704 295.294 194.34 296.704 193.612 297.861C192.903 299 191.941 299.858 190.728 300.437C189.533 301.016 188.199 301.305 186.724 301.305C185.268 301.305 183.943 301.016 182.748 300.437C181.572 299.858 180.639 299 179.948 297.861C179.257 296.704 178.912 295.294 178.912 293.633V281.565H182.832ZM203.531 284.729V289.629H210.111V292.737H203.531V297.917H210.951V301.109H199.611V281.537H210.951V284.729H203.531ZM225.714 301.109L221.402 293.493H219.554V301.109H215.634V281.565H222.97C224.482 281.565 225.77 281.836 226.834 282.377C227.898 282.9 228.691 283.618 229.214 284.533C229.755 285.429 230.026 286.437 230.026 287.557C230.026 288.845 229.652 290.012 228.906 291.057C228.159 292.084 227.048 292.793 225.574 293.185L230.25 301.109H225.714ZM219.554 290.553H222.83C223.894 290.553 224.687 290.301 225.21 289.797C225.732 289.274 225.994 288.556 225.994 287.641C225.994 286.745 225.732 286.054 225.21 285.569C224.687 285.065 223.894 284.813 222.83 284.813H219.554V290.553ZM250.231 281.565L243.623 294.305V301.109H239.703V294.305L233.067 281.565H237.491L241.691 290.497L245.863 281.565H250.231Z" fill="#212529"/>
<path d="M119.73 123.221C106.289 142.539 107.962 167.676 118.23 188.205C118.474 188.697 118.73 189.181 118.982 189.665L119.462 190.59L119.762 191.122L120.297 192.08C120.616 192.642 120.943 193.201 121.277 193.761L121.836 194.682C122.207 195.281 122.586 195.872 122.974 196.462L123.459 197.21C123.994 198.008 124.541 198.805 125.106 199.588L125.154 199.649L125.432 200.024C125.92 200.698 126.424 201.363 126.933 202.022L127.499 202.741C127.953 203.312 128.415 203.88 128.886 204.446L129.416 205.079C130.047 205.823 130.692 206.563 131.349 207.288L131.389 207.328L131.463 207.411C132.106 208.112 132.763 208.797 133.428 209.482L134.058 210.116C134.574 210.636 135.098 211.146 135.627 211.655L136.269 212.264C136.976 212.931 137.69 213.584 138.419 214.222L138.453 214.249L138.827 214.569C139.469 215.124 140.123 215.676 140.781 216.218L141.59 216.862C142.127 217.294 142.671 217.718 143.218 218.135L144.088 218.796C144.693 219.241 145.301 219.679 145.915 220.107L146.581 220.578L146.764 220.709C147.346 221.11 147.942 221.496 148.538 221.882L149.306 222.394C150.22 222.972 151.146 223.543 152.083 224.096L152.851 224.528C153.54 224.926 154.233 225.316 154.935 225.697C155.316 225.902 155.706 226.096 156.088 226.292C156.584 226.551 157.077 226.815 157.581 227.067L157.926 227.234L158.537 227.529C159.318 227.902 160.105 228.269 160.901 228.622L161.401 228.846C162.312 229.245 163.231 229.627 164.159 229.993L164.83 230.258C165.688 230.588 166.558 230.914 167.432 231.222L167.759 231.335C168.718 231.67 169.686 231.981 170.661 232.284L171.362 232.494C172.354 232.793 173.335 233.15 174.357 233.339C239.364 245.193 258.247 194.274 258.247 194.274C242.388 214.935 214.237 220.386 187.565 214.318C186.555 214.09 185.575 213.774 184.589 213.483L183.846 213.257C182.884 212.962 181.929 212.651 180.98 212.325L180.586 212.182C179.736 211.884 178.896 211.568 178.059 211.245L177.349 210.966C176.433 210.604 175.521 210.226 174.621 209.831L174.076 209.59C173.302 209.239 172.536 208.886 171.774 208.519L171.108 208.199C170.51 207.908 169.917 207.599 169.327 207.294C168.933 207.085 168.53 206.889 168.139 206.672C167.418 206.286 166.711 205.885 166.005 205.475L165.285 205.073C164.348 204.522 163.423 203.951 162.506 203.371L161.757 202.871C161.092 202.443 160.431 202.007 159.779 201.556L159.142 201.109C158.514 200.664 157.891 200.214 157.273 199.757L156.445 199.131C155.879 198.698 155.316 198.262 154.759 197.812L154.007 197.209C153.297 196.625 152.598 196.04 151.905 195.438L151.675 195.244C150.927 194.587 150.193 193.913 149.467 193.237L148.844 192.638C148.306 192.127 147.778 191.611 147.257 191.082L146.636 190.462C145.974 189.784 145.324 189.098 144.688 188.402L144.592 188.3C143.919 187.564 143.261 186.812 142.616 186.052L142.099 185.438C141.619 184.859 141.143 184.273 140.677 183.681L140.157 183.032C139.597 182.306 139.05 181.583 138.515 180.846C123.707 160.646 118.386 132.788 130.221 109.91M161.457 106.943C151.735 120.932 152.264 139.659 159.847 154.454C161.118 156.934 162.548 159.341 164.147 161.631C165.603 163.719 167.218 166.202 169.151 167.879C169.852 168.651 170.584 169.404 171.332 170.144L171.908 170.711C172.634 171.415 173.371 172.107 174.135 172.78L174.226 172.858L174.248 172.88C175.092 173.621 175.964 174.332 176.85 175.034L177.441 175.494C178.329 176.176 179.235 176.843 180.162 177.482L180.241 177.542C180.651 177.824 181.068 178.088 181.483 178.361L182.072 178.75C182.735 179.175 183.406 179.589 184.089 179.987L184.375 180.152C184.964 180.491 185.56 180.825 186.158 181.149L186.793 181.48C187.207 181.695 187.62 181.916 188.04 182.125L188.229 182.211C189.086 182.632 189.95 183.04 190.832 183.423L191.408 183.66C192.113 183.96 192.826 184.252 193.54 184.525L194.454 184.86C195.104 185.102 195.756 185.321 196.413 185.542L197.299 185.826C198.234 186.116 199.158 186.482 200.131 186.645C250.323 194.96 261.911 156.315 261.911 156.315C251.466 171.358 231.238 178.536 209.652 172.932C208.693 172.68 207.749 172.407 206.809 172.111L205.955 171.834C205.287 171.619 204.624 171.389 203.967 171.149L203.07 170.815C202.348 170.538 201.637 170.252 200.93 169.953L200.353 169.709C199.467 169.324 198.595 168.917 197.735 168.491C197.293 168.276 196.858 168.048 196.422 167.823L195.663 167.433C195.105 167.131 194.55 166.817 194.002 166.495L193.605 166.27C192.925 165.873 192.256 165.464 191.593 165.041L190.986 164.636C190.548 164.354 190.112 164.065 189.683 163.775C188.758 163.136 187.857 162.468 186.97 161.791L186.36 161.309C176.912 153.85 169.421 143.654 165.861 132.095C162.13 120.107 162.934 106.649 169.399 95.7271M196.551 94.7825C190.82 103.216 190.257 113.69 194.234 123.004C198.428 132.892 207.02 140.647 217.049 144.326C217.462 144.478 217.876 144.615 218.294 144.757L218.844 144.932C219.435 145.117 220.021 145.333 220.632 145.448C248.346 150.804 255.864 131.227 257.864 128.344C251.28 137.825 240.214 140.101 226.636 136.805C225.563 136.545 224.385 136.158 223.351 135.791C222.025 135.318 220.719 134.779 219.45 134.171C217.039 133.012 214.741 131.607 212.61 129.998C200.46 120.778 192.913 103.193 200.841 88.8716" fill="#0868AC"/>
</g>
<defs>
<filter id="filter0_d_321_695" x="0" y="0" width="375" height="376" filterUnits="userSpaceOnUse" color-interpolation-filters="sRGB">
<feFlood flood-opacity="0" result="BackgroundImageFix"/>
<feColorMatrix in="SourceAlpha" type="matrix" values="0 0 0 0 0 0 0 0 0 0 0 0 0 0 0 0 0 0 127 0" result="hardAlpha"/>
<feOffset dy="11"/>
<feGaussianBlur stdDeviation="5"/>
<feComposite in2="hardAlpha" operator="out"/>
<feColorMatrix type="matrix" values="0 0 0 0 0 0 0 0 0 0 0 0 0 0 0 0 0 0 0.25 0"/>
<feBlend mode="normal" in2="BackgroundImageFix" result="effect1_dropShadow_321_695"/>
<feBlend mode="normal" in="SourceGraphic" in2="effect1_dropShadow_321_695" result="shape"/>
</filter>
</defs>
</svg>
