<svg width="195" height="222" viewBox="0 0 195 222" fill="none" xmlns="http://www.w3.org/2000/svg">
<path d="M0.77533 1.06063C22.4801 0.146287 44.2285 1.32187 65.955 0.951783C89.9239 0.189829 113.871 0.821161 137.862 0.908241C156.889 0.951782 175.916 0.821158 194.943 0.973549C188.956 67.0023 182.926 133.031 177.374 199.103C151.882 206.353 126.367 213.493 100.874 220.699C97.6088 222.049 94.2562 220.786 91.1213 219.937C66.8911 212.971 42.661 206.07 18.3873 199.365C12.074 133.314 6.13078 67.1982 0.77533 1.06063ZM98.2619 18.2808C97.3693 50.8489 98.1313 83.417 97.87 115.985C98.1095 145.767 97.4346 175.57 98.2184 205.351C119.64 200.301 140.779 194.096 161.918 187.979C167.23 131.442 172.411 74.9048 176.852 18.3026C150.662 18.0413 124.451 18.3461 98.2619 18.2808ZM71.0057 145.462C58.4226 142.022 45.9919 138.06 33.2346 135.339C32.8645 142.915 32.9951 150.491 33.8659 158.023C52.5447 162.573 70.8315 168.56 89.532 173.023C89.6627 129.896 89.4667 86.7478 89.6191 43.6212C83.5235 43.4688 77.4279 43.3817 71.3323 43.2511C70.6356 77.2996 71.2887 111.392 71.0057 145.462Z" fill="#D6BA32"/>
<path d="M98.2615 18.2812C124.451 18.3465 150.662 18.0417 176.852 18.303C172.41 74.9053 167.229 131.442 161.917 187.979C140.779 194.097 119.64 200.301 98.218 205.352C97.4343 175.57 98.1092 145.767 97.8697 115.985C98.1309 83.4174 97.369 50.8493 98.2615 18.2812ZM105.598 43.5998C105.685 71.6397 105.707 99.7014 105.598 127.741C118.399 125.673 131.156 123.3 143.913 120.971C143.718 127.502 143.456 134.033 143.173 140.564C130.743 143.873 118.334 147.291 105.838 150.36C105.642 157.893 105.62 165.425 105.685 172.98C121.425 169.453 136.925 165.012 152.556 161.071C154.515 160.157 158.282 160.266 158.108 157.196C160.002 137.037 161.177 116.791 163.006 96.5883C150.053 97.655 137.23 99.832 124.277 100.725C124.168 89.2735 124.146 77.8224 124.32 66.3714C137.948 66.3714 151.555 66.3714 165.183 66.3931C166.054 58.7518 166.816 51.0888 167.403 43.4257C146.809 43.5128 126.193 43.2297 105.598 43.5998Z" fill="#FFDA3E"/>
<path d="M71.0056 145.461C71.2887 111.391 70.6356 77.2989 71.3322 43.2505C77.4278 43.3811 83.5235 43.4682 89.6191 43.6206C89.4667 86.7472 89.6627 129.896 89.532 173.022C70.8315 168.559 52.5447 162.572 33.8659 158.023C32.9951 150.49 32.8644 142.914 33.2345 135.338C45.9918 138.059 58.4225 142.021 71.0056 145.461Z" fill="#EBEBEB"/>
</svg>
