<svg width="375" height="376" viewBox="0 0 375 376" fill="none" xmlns="http://www.w3.org/2000/svg">
<g filter="url(#filter0_d_320_558)">
<rect x="10" width="355" height="355" rx="10" fill="white"/>
<path d="M109.067 281.565V295.285C109.067 297.189 108.517 298.673 107.415 299.737C106.314 300.782 104.839 301.305 102.991 301.305C101.125 301.305 99.6126 300.764 98.4553 299.681C97.3166 298.598 96.7473 297.086 96.7473 295.145H100.667C100.686 295.985 100.882 296.638 101.255 297.105C101.647 297.572 102.207 297.805 102.935 297.805C103.645 297.805 104.186 297.581 104.559 297.133C104.933 296.685 105.119 296.069 105.119 295.285V281.565H109.067ZM126.744 297.385H118.96L117.672 301.109H113.556L120.584 281.537H125.148L132.176 301.109H128.032L126.744 297.385ZM125.68 294.249L122.852 286.073L120.024 294.249H125.68ZM153.479 281.565L146.311 301.109H141.551L134.383 281.565H138.583L143.959 297.105L149.307 281.565H153.479ZM168.933 297.385H161.149L159.861 301.109H155.745L162.773 281.537H167.337L174.365 301.109H170.221L168.933 297.385ZM167.869 294.249L165.041 286.073L162.213 294.249H167.869ZM184.86 301.305C183.498 301.305 182.266 301.072 181.164 300.605C180.082 300.138 179.223 299.466 178.588 298.589C177.954 297.712 177.627 296.676 177.608 295.481H181.808C181.864 296.284 182.144 296.918 182.648 297.385C183.171 297.852 183.88 298.085 184.776 298.085C185.691 298.085 186.41 297.87 186.932 297.441C187.455 296.993 187.716 296.414 187.716 295.705C187.716 295.126 187.539 294.65 187.184 294.277C186.83 293.904 186.382 293.614 185.84 293.409C185.318 293.185 184.59 292.942 183.656 292.681C182.387 292.308 181.351 291.944 180.548 291.589C179.764 291.216 179.083 290.665 178.504 289.937C177.944 289.19 177.664 288.201 177.664 286.969C177.664 285.812 177.954 284.804 178.532 283.945C179.111 283.086 179.923 282.433 180.968 281.985C182.014 281.518 183.208 281.285 184.552 281.285C186.568 281.285 188.202 281.78 189.452 282.769C190.722 283.74 191.422 285.102 191.552 286.857H187.24C187.203 286.185 186.914 285.634 186.372 285.205C185.85 284.757 185.15 284.533 184.272 284.533C183.507 284.533 182.891 284.729 182.424 285.121C181.976 285.513 181.752 286.082 181.752 286.829C181.752 287.352 181.92 287.79 182.256 288.145C182.611 288.481 183.04 288.761 183.544 288.985C184.067 289.19 184.795 289.433 185.728 289.713C186.998 290.086 188.034 290.46 188.836 290.833C189.639 291.206 190.33 291.766 190.908 292.513C191.487 293.26 191.776 294.24 191.776 295.453C191.776 296.498 191.506 297.469 190.964 298.365C190.423 299.261 189.63 299.98 188.584 300.521C187.539 301.044 186.298 301.305 184.86 301.305ZM195.343 291.309C195.343 289.386 195.772 287.669 196.631 286.157C197.508 284.626 198.693 283.441 200.187 282.601C201.699 281.742 203.388 281.313 205.255 281.313C207.439 281.313 209.352 281.873 210.995 282.993C212.637 284.113 213.785 285.662 214.439 287.641H209.931C209.483 286.708 208.848 286.008 208.027 285.541C207.224 285.074 206.291 284.841 205.227 284.841C204.088 284.841 203.071 285.112 202.175 285.653C201.297 286.176 200.607 286.922 200.103 287.893C199.617 288.864 199.375 290.002 199.375 291.309C199.375 292.597 199.617 293.736 200.103 294.725C200.607 295.696 201.297 296.452 202.175 296.993C203.071 297.516 204.088 297.777 205.227 297.777C206.291 297.777 207.224 297.544 208.027 297.077C208.848 296.592 209.483 295.882 209.931 294.949H214.439C213.785 296.946 212.637 298.505 210.995 299.625C209.371 300.726 207.457 301.277 205.255 301.277C203.388 301.277 201.699 300.857 200.187 300.017C198.693 299.158 197.508 297.973 196.631 296.461C195.772 294.949 195.343 293.232 195.343 291.309ZM228.987 301.109L224.675 293.493H222.827V301.109H218.907V281.565H226.243C227.755 281.565 229.043 281.836 230.107 282.377C231.171 282.9 231.964 283.618 232.487 284.533C233.028 285.429 233.299 286.437 233.299 287.557C233.299 288.845 232.926 290.012 232.179 291.057C231.432 292.084 230.322 292.793 228.847 293.185L233.523 301.109H228.987ZM222.827 290.553H226.103C227.167 290.553 227.96 290.301 228.483 289.797C229.006 289.274 229.267 288.556 229.267 287.641C229.267 286.745 229.006 286.054 228.483 285.569C227.96 285.065 227.167 284.813 226.103 284.813H222.827V290.553ZM241.884 281.565V301.109H237.964V281.565H241.884ZM261.129 287.613C261.129 288.658 260.877 289.638 260.373 290.553C259.888 291.468 259.113 292.205 258.049 292.765C257.004 293.325 255.679 293.605 254.073 293.605H250.797V301.109H246.877V281.565H254.073C255.585 281.565 256.873 281.826 257.937 282.349C259.001 282.872 259.795 283.59 260.317 284.505C260.859 285.42 261.129 286.456 261.129 287.613ZM253.905 290.441C254.988 290.441 255.791 290.198 256.313 289.713C256.836 289.209 257.097 288.509 257.097 287.613C257.097 285.709 256.033 284.757 253.905 284.757H250.797V290.441H253.905ZM278.333 281.565V284.729H273.125V301.109H269.205V284.729H263.997V281.565H278.333Z" fill="#212529"/>
<path d="M89.7753 31.0606C111.48 30.1463 133.228 31.3219 154.955 30.9518C178.924 30.1898 202.871 30.8212 226.862 30.9082C245.889 30.9518 264.916 30.8212 283.943 30.9735C277.956 97.0023 271.926 163.031 266.374 229.103C240.882 236.353 215.367 243.493 189.874 250.699C186.609 252.049 183.256 250.786 180.121 249.937C155.891 242.971 131.661 236.07 107.387 229.365C101.074 163.314 95.1308 97.1982 89.7753 31.0606M187.262 48.2808C186.369 80.8489 187.131 113.417 186.87 145.985C187.109 175.767 186.435 205.57 187.218 235.351C208.64 230.301 229.779 224.096 250.918 217.979C256.23 161.442 261.411 104.905 265.852 48.3026C239.662 48.0413 213.451 48.3461 187.262 48.2808M160.006 175.462C147.423 172.022 134.992 168.06 122.235 165.339C121.864 172.915 121.995 180.491 122.866 188.023C141.545 192.573 159.832 198.56 178.532 203.023C178.663 159.896 178.467 116.748 178.619 73.6212C172.524 73.4688 166.428 73.3817 160.332 73.2511C159.636 107.3 160.289 141.392 160.006 175.462V175.462Z" fill="#D6BA32"/>
<path d="M187.262 48.2812C213.451 48.3465 239.662 48.0417 265.852 48.303C261.41 104.905 256.229 161.442 250.917 217.979C229.779 224.097 208.64 230.301 187.218 235.352C186.434 205.57 187.109 175.767 186.87 145.985C187.131 113.417 186.369 80.8493 187.262 48.2812M194.598 73.5998C194.685 101.64 194.707 129.701 194.598 157.741C207.399 155.673 220.156 153.3 232.913 150.971C232.718 157.502 232.456 164.033 232.173 170.564C219.743 173.873 207.334 177.291 194.838 180.36C194.642 187.893 194.62 195.425 194.685 202.98C210.425 199.453 225.925 195.012 241.556 191.071C243.515 190.157 247.282 190.266 247.108 187.196C249.002 167.037 250.177 146.791 252.006 126.588C239.053 127.655 226.23 129.832 213.277 130.725C213.168 119.274 213.146 107.822 213.32 96.3714C226.948 96.3714 240.555 96.3714 254.183 96.3931C255.054 88.7518 255.816 81.0888 256.403 73.4257C235.809 73.5128 215.193 73.2297 194.598 73.5998Z" fill="#FFDA3E"/>
<path d="M160.006 175.461C160.289 141.391 159.636 107.299 160.332 73.2505C166.428 73.3811 172.523 73.4682 178.619 73.6206C178.467 116.747 178.663 159.896 178.532 203.022C159.832 198.559 141.545 192.572 122.866 188.023C121.995 180.49 121.864 172.914 122.235 165.338C134.992 168.059 147.423 172.021 160.006 175.461V175.461Z" fill="#EBEBEB"/>
</g>
<defs>
<filter id="filter0_d_320_558" x="0" y="0" width="375" height="376" filterUnits="userSpaceOnUse" color-interpolation-filters="sRGB">
<feFlood flood-opacity="0" result="BackgroundImageFix"/>
<feColorMatrix in="SourceAlpha" type="matrix" values="0 0 0 0 0 0 0 0 0 0 0 0 0 0 0 0 0 0 127 0" result="hardAlpha"/>
<feOffset dy="11"/>
<feGaussianBlur stdDeviation="5"/>
<feComposite in2="hardAlpha" operator="out"/>
<feColorMatrix type="matrix" values="0 0 0 0 0 0 0 0 0 0 0 0 0 0 0 0 0 0 0.25 0"/>
<feBlend mode="normal" in2="BackgroundImageFix" result="effect1_dropShadow_320_558"/>
<feBlend mode="normal" in="SourceGraphic" in2="effect1_dropShadow_320_558" result="shape"/>
</filter>
</defs>
</svg>
