<svg width="251" height="173" viewBox="0 0 251 173" fill="none" xmlns="http://www.w3.org/2000/svg">
<path d="M35.6284 24.2944C35.6284 24.2944 47.7412 10.996 56.1304 5.48457C58.8033 3.73019 78.683 -6.64551 91.4489 29.0646C98.4329 48.6166 98.5495 63.1811 82.6747 69.3924C73.1686 73.1128 76.5661 80.0776 76.5661 80.0776" fill="url(#paint0_linear_320_448)"/>
<path d="M54.9704 3.86509C46.4604 9.45555 34.5799 22.4548 34.0786 23.0042C33.3358 23.8216 33.4229 25.0642 34.2784 25.7754C35.1315 26.4856 36.4282 26.4038 37.172 25.5854C37.2928 25.4527 49.2156 12.4074 57.2932 7.10291C57.5351 6.94111 63.4278 3.15958 70.6045 5.43508C78.1516 7.82912 84.6897 16.2209 89.5065 29.6999C97.1746 51.1615 94.9005 62.492 81.8999 67.5745C78.1494 69.0457 75.6802 71.1717 74.5633 73.9062C73.0892 77.5128 74.6418 80.7704 74.7088 80.9096C75.183 81.8869 76.3878 82.3018 77.411 81.854C78.4369 81.411 78.8922 80.2511 78.435 79.2662C78.4272 79.2474 77.5503 77.3152 78.405 75.2909C79.1078 73.6203 80.8056 72.244 83.4527 71.2112C103.065 63.5343 99.0638 44.3153 93.3878 28.4272C88.0639 13.5334 80.8342 4.54614 71.8974 1.70905C62.9639 -1.12521 55.7602 3.34866 54.9704 3.86509" fill="#363254"/>
<path d="M198.516 31.9942H223.956C226.091 31.9942 227.82 33.3986 227.82 35.1257C227.82 36.8538 226.091 38.2554 223.956 38.2554H203.989L198.516 31.9942Z" fill="url(#paint1_linear_320_448)"/>
<path d="M223.957 33.9577C225.025 33.9577 225.767 34.5748 225.767 35.127C225.767 35.6782 225.025 36.2953 223.957 36.2953C223.957 36.2953 206.688 36.2953 204.948 36.2953C204.539 35.8306 203.927 35.1242 202.907 33.9577C208.919 33.9577 223.957 33.9577 223.957 33.9577ZM194.129 30.0332L203.03 40.2208H223.957C227.22 40.2208 229.872 37.9359 229.872 35.127C229.872 32.3172 227.22 30.0332 223.957 30.0332H194.129Z" fill="#363254"/>
<path d="M231.828 24.7148C235.326 23.062 239.414 23.4665 240.968 25.6169C242.515 27.7729 240.936 30.8518 237.439 32.5111C233.948 34.162 224.796 36.1591 223.244 34.0002C221.691 31.8498 228.336 26.3666 231.828 24.7148Z" fill="#8B9DD7"/>
<path d="M232.736 26.476C235.449 25.1948 238.428 25.556 239.278 26.7347C239.514 27.0649 239.569 27.444 239.446 27.8974C239.226 28.7158 238.344 29.8954 236.527 30.7561C233.155 32.3496 227.166 33.2847 225.315 32.8331C225.998 31.3121 229.744 27.8927 232.736 26.476ZM230.92 22.9588C227.996 24.3388 222.047 28.7384 221.106 32.216L221.558 35.1162C224.368 39.0313 235.705 35.5235 238.348 34.2714C240.981 33.025 242.829 31.0609 243.418 28.8823C243.84 27.3292 243.57 25.7762 242.657 24.5072C240.514 21.5384 235.363 20.8592 230.92 22.9588Z" fill="#363254"/>
<path d="M238.043 37.4207C241.792 38.6624 243.881 41.5381 242.724 43.8465C241.556 46.1577 237.578 47.0156 233.831 45.7702C230.089 44.5313 222.564 39.8599 223.726 37.5543C224.892 35.2383 234.301 36.179 238.043 37.4207Z" fill="#8B9DD7"/>
<path d="M238.717 35.5693H238.714H238.717ZM237.371 39.2747H237.373C239.387 39.9454 240.49 41.0601 240.848 41.8822C241.12 42.5106 240.936 42.8794 240.873 42.9998C240.257 44.2245 237.397 44.8774 234.504 43.9169C231.197 42.8229 226.751 39.7403 225.913 38.3218C227.465 37.8063 233.753 38.0734 237.371 39.2747H237.371ZM221.879 36.7038L221.881 39.5512C223.325 42.8794 229.99 46.5772 233.161 47.6279C237.929 49.213 242.945 47.927 244.571 44.7052C244.917 44.01 245.09 43.2641 245.09 42.5078C245.09 41.7948 244.938 41.0742 244.633 40.3687C243.714 38.2569 241.557 36.51 238.714 35.5693C235.877 34.6258 224.022 32.4453 221.879 36.7038" fill="#363254"/>
<path d="M238.591 30.3071C244.155 30.2713 248.687 32.26 248.708 34.7537C248.736 37.2465 244.251 39.2953 238.683 39.3311C233.128 39.3687 220.537 37.4375 220.511 34.9465C220.486 32.45 233.034 30.3485 238.591 30.3071Z" fill="#8B9DD7"/>
<path d="M246.657 34.7719C246.657 34.8669 246.568 35.0522 246.318 35.2949C245.313 36.276 242.487 37.3427 238.671 37.3672C233.9 37.3992 226.353 36.1152 223.449 34.9233C226.332 33.6873 233.842 32.3016 238.607 32.2697H238.605C243.874 32.2349 246.652 34.1124 246.657 34.7719H246.657ZM238.579 28.3423H238.576C234.534 28.3714 222.53 29.7834 219.45 32.7767L218.461 34.9656C218.518 40.7358 238.497 41.2945 238.699 41.2945C243.176 41.2635 247.218 40.0209 249.246 38.0482C250.251 37.0709 250.774 35.927 250.761 34.7333C250.729 30.9884 245.605 28.299 238.579 28.3423Z" fill="#363254"/>
<path d="M109.931 94.2692V144.673C109.931 157.101 97.4972 161.555 82.1632 161.555C66.8266 161.555 54.3993 157.101 54.3993 144.673V93.6747" fill="url(#paint2_linear_320_448)"/>
<path d="M52.348 93.6756V144.674C52.348 156.828 62.9337 163.519 82.1632 163.519C101.392 163.519 111.982 156.828 111.982 144.674V94.2701C111.982 93.1855 111.063 92.306 109.931 92.306C108.797 92.306 107.879 93.1855 107.879 94.2701V144.674C107.879 157.006 93.897 159.593 82.1632 159.593C70.4338 159.593 56.4513 157.006 56.4513 144.674V93.6756C56.4513 92.5929 55.5318 91.7134 54.3993 91.7134C53.2671 91.7134 52.348 92.5929 52.348 93.6756Z" fill="#363254"/>
<path d="M66.5681 144.611C66.5681 149.639 63.6296 153.727 60.0031 153.727C56.3762 153.727 53.4369 149.639 53.4369 144.611C53.4369 139.574 56.3762 128.201 60.0031 128.201C63.6296 128.201 66.5681 139.574 66.5681 144.611Z" fill="#8B9DD7"/>
<path d="M54.1218 144.613C54.1218 139.136 57.2359 128.857 60.0033 128.857C62.7696 128.857 65.8848 139.136 65.8848 144.613C65.8848 149.281 63.2479 153.075 60.0033 153.075C56.761 153.075 54.1218 149.281 54.1218 144.613ZM52.7526 144.613C52.7526 150 56.0041 154.385 60.0033 154.385C64.001 154.385 67.2512 150 67.2512 144.613C67.2512 139.692 64.3637 127.546 60.0033 127.546C55.644 127.546 52.7526 139.692 52.7526 144.613Z" fill="#363254"/>
<path d="M55.2053 145.521C55.2053 140.677 58.7589 131.957 61.3528 131.957C61.6014 131.957 61.8448 132.08 62.0793 132.267C61.431 130.732 60.6882 129.716 59.9013 129.716C57.3055 129.716 55.2053 140.679 55.2053 145.521Z" fill="#A6BDE6"/>
<path d="M69.6643 149.456C69.6643 153.341 67.3281 156.491 64.444 156.491C61.5573 156.491 59.2178 153.341 59.2178 149.456C59.2178 145.559 61.5573 136.785 64.444 136.785C67.3281 136.785 69.6643 145.559 69.6643 149.456Z" fill="#8B9DD7"/>
<path d="M59.9019 149.454C59.9019 145.382 62.3555 137.439 64.4446 137.439C66.534 137.439 68.9802 145.382 68.9802 149.454C68.9802 152.971 66.9444 155.835 64.4446 155.835C61.9383 155.835 59.9019 152.971 59.9019 149.454ZM58.5345 149.454C58.5345 153.693 61.186 157.144 64.4446 157.144C67.6983 157.144 70.3487 153.693 70.3487 149.454C70.3487 146.137 68.2537 136.128 64.4446 136.128C60.6295 136.128 58.5345 146.137 58.5345 149.454Z" fill="#363254"/>
<path d="M61.4142 147.141C61.1515 144.372 63.5999 139.777 65.5075 139.441C65.686 139.418 65.8697 139.46 66.0524 139.536C65.4933 138.741 64.8607 138.107 64.3186 138.355C62.4304 139.25 61.1515 144.382 61.4142 147.141Z" fill="#A6BDE6"/>
<path d="M194.878 94.8847V145.287C194.878 157.717 182.445 162.169 167.111 162.169C151.775 162.169 139.343 157.717 139.343 145.287V94.2902" fill="url(#paint3_linear_320_448)"/>
<path d="M137.29 94.2893V145.286C137.29 157.438 147.881 164.132 167.111 164.132C175.766 164.132 182.706 162.776 187.741 160.105C193.751 156.914 196.929 151.791 196.929 145.286V94.8839C196.929 93.8002 196.01 92.9216 194.878 92.9216C193.745 92.9216 192.828 93.8002 192.828 94.8839V145.286C192.828 150.422 190.511 154.145 185.749 156.674C181.392 158.984 174.948 160.206 167.111 160.206C155.379 160.206 141.396 157.615 141.396 145.286V94.2893C141.396 93.2038 140.475 92.3252 139.343 92.3252C138.21 92.3252 137.29 93.2038 137.29 94.2893Z" fill="#363254"/>
<path d="M151.515 145.227C151.515 150.255 148.577 154.349 144.952 154.349C141.319 154.349 138.383 150.255 138.383 145.227C138.383 140.193 141.319 128.819 144.952 128.819C148.577 128.819 151.515 140.193 151.515 145.227Z" fill="#7483CA"/>
<path d="M139.064 145.225C139.064 142.654 139.843 138.588 140.955 135.339C142.193 131.72 143.725 129.471 144.951 129.471C147.716 129.471 150.831 139.748 150.831 145.225C150.831 149.895 148.194 153.691 144.951 153.691C141.705 153.691 139.064 149.895 139.064 145.225ZM139.655 134.931C138.502 138.296 137.697 142.531 137.697 145.225C137.697 150.614 140.951 155.001 144.951 155.001C148.948 155.001 152.198 150.614 152.198 145.225C152.198 140.304 149.31 128.163 144.951 128.163C142.487 128.163 140.712 131.841 139.655 134.931Z" fill="#363254"/>
<path d="M140.155 146.141C140.155 141.296 143.706 132.57 146.3 132.57C146.549 132.57 146.792 132.697 147.027 132.881C146.376 131.349 145.636 130.331 144.85 130.331C142.252 130.331 140.155 141.296 140.155 146.141Z" fill="#839AD6"/>
<path d="M154.613 150.068C154.613 153.958 152.278 157.101 149.391 157.101C146.507 157.101 144.168 153.958 144.168 150.068C144.168 146.172 146.507 137.398 149.391 137.398C152.278 137.398 154.613 146.172 154.613 150.068Z" fill="#7483CA"/>
<path d="M144.852 150.068C144.852 145.996 147.301 138.055 149.391 138.055C151.477 138.055 153.928 145.996 153.928 150.068C153.928 153.587 151.891 156.451 149.391 156.451C146.887 156.451 144.852 153.587 144.852 150.068ZM143.485 150.068C143.485 154.312 146.134 157.759 149.391 157.759C152.647 157.759 155.296 154.312 155.296 150.068C155.296 146.753 153.2 136.746 149.391 136.746C145.578 136.746 143.485 146.753 143.485 150.068Z" fill="#363254"/>
<path d="M146.363 147.754C146.097 144.988 148.547 140.394 150.455 140.056C150.635 140.032 150.819 140.072 150.999 140.15C150.441 139.354 149.808 138.719 149.266 138.968C147.376 139.863 146.097 144.994 146.363 147.754Z" fill="#839AD6"/>
<path d="M86.5701 25.4311C97.3845 42.8713 96.2322 57.6042 81.8229 65.3272C73.1958 69.9534 77.9452 76.0547 77.9452 76.0547" fill="url(#paint4_linear_320_448)"/>
<path d="M85.5241 23.7391C84.5479 24.2932 84.2245 25.4982 84.805 26.4304C90.8251 36.1335 92.9794 44.9214 91.0385 51.8382C89.6585 56.7551 86.2169 60.7163 80.8217 63.6127C77.4112 65.4395 75.377 67.7441 74.772 70.4589C73.9489 74.1483 76.2047 77.1011 76.3013 77.2243C76.9741 78.0888 78.2437 78.2637 79.1539 77.6288C80.062 76.9929 80.2605 75.7672 79.6022 74.8924C79.5923 74.8754 78.3419 73.1775 78.7928 71.2416C79.1539 69.6932 80.5113 68.2794 82.8252 67.0377C89.2262 63.6042 93.3243 58.8359 95.0025 52.855C97.2355 44.8922 94.9328 35.0612 88.3337 24.4258C87.7565 23.4927 86.4951 23.187 85.5241 23.7391Z" fill="#080604"/>
<path d="M149.743 13.0647C149.743 13.0647 131.788 12.8549 66.1854 15.011C0.586518 17.166 3.00752 40.4977 2.90564 74.0047V154.598C2.90564 161.415 8.8609 164.165 16.2091 164.165C23.5562 164.165 29.5204 161.415 29.5204 154.598C29.5204 154.598 31.2145 131.57 32.6771 117.561C35.9491 66.6693 97.8868 125.929 142.912 123.164C183.827 120.648 216.047 106.641 216.047 73.351C216.047 40.0537 194.931 13.0647 149.743 13.0647Z" fill="url(#paint5_linear_320_448)"/>
<path d="M4.95729 154.599V74.0057C4.95729 74.0133 4.96248 70.4547 4.96248 70.4547C4.97359 39.4611 4.98248 18.9854 66.2548 16.9723C131.007 14.8464 149.538 15.0251 149.719 15.026H149.744C170.374 15.026 187.185 20.9241 198.359 32.0806C208.59 42.2907 213.996 56.5618 213.996 73.352C213.996 109.284 175.269 119.208 142.781 121.206C125.683 122.254 105.514 113.869 87.7197 106.469C67.773 98.1756 50.547 91.0142 39.9413 97.2311C34.3394 100.514 31.2946 107.125 30.6315 117.442C29.1899 131.241 27.4902 154.228 27.4743 154.462C27.4695 161.214 20.4147 162.204 16.2095 162.204C12.0084 162.204 4.95731 161.214 4.95731 154.599H4.95729ZM66.1166 13.0516C0.879933 15.1935 0.868823 38.3718 0.85919 70.4518L0.854004 74.0001V154.599C0.854004 161.818 6.59513 166.133 16.2095 166.133C25.8324 166.133 31.5727 161.818 31.5727 154.599C31.5846 154.504 33.2761 131.573 34.7199 117.756C35.3011 108.738 37.7091 103.145 42.084 100.578C50.8726 95.4297 67.9715 102.54 86.084 110.07C104.305 117.647 124.955 126.235 143.044 125.123C191.444 122.146 218.099 103.76 218.099 73.352C218.099 55.5317 212.297 40.3219 201.322 29.3629C189.356 17.4172 171.52 11.1015 149.744 11.1015H149.768C149.589 11.0994 131.013 10.9143 66.1166 13.0516" fill="#363254"/>
<path d="M4.69587 76.2148C4.76589 83.7836 3.69264 149.893 7.90226 153.862C6.57969 150.935 9.47304 86.8887 9.43599 82.8636L9.39709 80.5081C9.39709 79.3868 9.39709 78.2815 9.39709 77.1809C7.77445 76.5864 6.1996 75.8555 4.67919 75.0192L4.69587 76.2148Z" fill="url(#paint6_linear_320_448)"/>
<path d="M149.719 15.2835C149.719 15.2835 132.154 15.0785 67.967 17.1875C3.78277 19.2965 4.76784 42.7533 4.76784 74.2886L4.78118 75.4551C6.26675 76.2913 7.80642 77.0222 9.38645 77.6177C9.40127 47.7727 10.6808 25.8746 72.5881 23.8409C136.773 21.7319 154.344 21.937 154.344 21.937C178.89 21.937 195.788 30.1566 206.31 42.9809C196.623 26.3854 178.283 15.2835 149.719 15.2835Z" fill="url(#paint7_linear_320_448)"/>
<path d="M127.363 117.393V153.288C127.363 165.716 114.927 170.18 99.5919 170.18C84.2567 170.18 71.8271 165.716 71.8271 153.288V98.6541" fill="url(#paint8_linear_320_448)"/>
<path d="M69.7762 98.6541V153.288C69.7762 165.446 80.3678 172.141 99.5926 172.141C118.823 172.141 129.416 165.446 129.416 153.288V117.393C129.416 116.31 128.495 115.43 127.363 115.43C126.232 115.43 125.312 116.31 125.312 117.393V153.288C125.312 165.627 111.327 168.216 99.5926 168.216C87.8638 168.216 73.8795 165.627 73.8795 153.288V98.6541C73.8795 97.5705 72.9604 96.6919 71.8278 96.6919C70.695 96.6919 69.7762 97.5705 69.7762 98.6541Z" fill="#363254"/>
<path d="M89.294 156.769C89.294 161.445 85.3734 165.237 80.5321 165.237C75.6912 165.237 71.769 161.445 71.769 156.769C71.769 152.089 75.6912 141.523 80.5321 141.523C85.3734 141.523 89.294 152.089 89.294 156.769Z" fill="#8B9DD7"/>
<path d="M72.4539 156.769C72.4539 152.212 76.3601 142.175 80.5327 142.175C84.7056 142.175 88.6118 152.212 88.6118 156.769C88.6118 161.079 84.9901 164.583 80.5327 164.583C76.0807 164.583 72.4539 161.079 72.4539 156.769ZM71.085 156.769C71.085 161.798 75.3232 165.891 80.5327 165.891C85.7429 165.891 89.9803 161.798 89.9803 156.769C89.9803 152.027 85.9934 140.864 80.5327 140.864C75.0768 140.864 71.085 152.027 71.085 156.769Z" fill="#363254"/>
<path d="M73.2659 157.328C73.2659 153.141 78.1719 145.62 81.7614 145.62C82.1033 145.62 82.4352 145.727 82.7668 145.891C81.8625 144.568 80.8418 143.688 79.7579 143.688C76.1669 143.688 73.2659 153.147 73.2659 157.328Z" fill="#A6BDE6"/>
<path d="M96.4335 157.431C96.4335 163.598 92.3725 168.615 87.3623 168.615C82.3447 168.615 78.2837 163.598 78.2837 157.431C78.2837 151.257 82.3447 137.313 87.3623 137.313C92.3725 137.313 96.4335 151.257 96.4335 157.431Z" fill="#8B9DD7"/>
<path d="M78.9664 157.43C78.9664 151.348 83.0274 137.964 87.3619 137.964C91.6953 137.964 95.7502 151.348 95.7502 157.43C95.7502 163.234 91.988 167.958 87.3619 167.958C82.7344 167.958 78.9664 163.234 78.9664 157.43ZM77.599 157.43C77.599 163.956 81.9794 169.268 87.3619 169.268C92.7422 169.268 97.1178 163.956 97.1178 157.43C97.1178 151.232 92.9978 136.659 87.3619 136.659C81.7238 136.659 77.599 151.232 77.599 157.43Z" fill="#363254"/>
<path d="M80.7294 158.55C80.7294 152.604 85.6403 141.918 89.2257 141.918C89.5672 141.918 89.904 142.072 90.2303 142.3C89.3324 140.413 88.3053 139.169 87.2222 139.169C83.6308 139.169 80.7294 152.613 80.7294 158.55Z" fill="#A6BDE6"/>
<path d="M101.195 160.752C101.195 165.118 98.2724 168.656 94.6652 168.656C91.0595 168.656 88.1361 165.118 88.1361 160.752C88.1361 156.366 91.0595 146.5 94.6652 146.5C98.2724 146.5 101.195 156.366 101.195 160.752Z" fill="#8B9DD7"/>
<path d="M88.8197 160.75C88.8197 156.022 91.9202 147.152 94.665 147.152C97.4166 147.152 100.511 156.022 100.511 160.75C100.511 164.75 97.8908 167.998 94.665 167.998C91.4427 167.998 88.8197 164.75 88.8197 160.75ZM87.4517 160.75C87.4517 165.47 90.6902 169.308 94.665 169.308C98.6467 169.308 101.878 165.47 101.878 160.75C101.878 156.452 99.0043 145.844 94.665 145.844C90.3276 145.844 87.4517 156.452 87.4517 160.75Z" fill="#363254"/>
<path d="M90.8821 158.144C90.5512 155.027 93.6117 149.858 95.9959 149.485C96.2206 149.449 96.4492 149.502 96.6796 149.588C95.9797 148.689 95.1888 147.977 94.5111 148.26C92.1483 149.267 90.5512 155.037 90.8821 158.144Z" fill="#A6BDE6"/>
<path d="M212.338 92.7265V151.884C212.338 164.311 199.903 168.772 184.568 168.772C169.232 168.772 156.804 164.311 156.804 151.884V117.894" fill="url(#paint9_linear_320_448)"/>
<path d="M210.284 92.726V151.883C210.284 164.221 196.299 166.808 184.568 166.808C172.84 166.808 158.856 164.221 158.856 151.883V117.894C158.856 116.81 157.937 115.93 156.804 115.93C155.672 115.93 154.753 116.81 154.753 117.894V151.883C154.753 164.04 165.341 170.737 184.568 170.737C203.797 170.737 214.388 164.04 214.388 151.883V92.726C214.388 91.6414 213.471 90.7646 212.338 90.7646C211.204 90.7646 210.284 91.6414 210.284 92.726Z" fill="#363254"/>
<path d="M174.272 155.364C174.272 160.036 170.35 163.827 165.509 163.827C160.668 163.827 156.747 160.036 156.747 155.364C156.747 150.683 160.668 140.115 165.509 140.115C170.35 140.115 174.272 150.683 174.272 155.364Z" fill="#8B9DD7"/>
<path d="M157.431 155.365C157.431 150.805 161.336 140.773 165.509 140.773C169.684 140.773 173.589 150.805 173.589 155.365C173.589 159.671 169.963 163.177 165.509 163.177C161.055 163.177 157.431 159.671 157.431 155.365ZM156.063 155.365C156.063 160.393 160.299 164.485 165.509 164.485C170.718 164.485 174.956 160.393 174.956 155.365C174.956 150.622 170.968 139.462 165.509 139.462C160.052 139.462 156.063 150.622 156.063 155.365Z" fill="#363254"/>
<path d="M158.242 155.922C158.242 151.737 163.147 144.216 166.737 144.216C167.08 144.216 167.411 144.322 167.743 144.484C166.84 143.161 165.819 142.282 164.734 142.282C161.144 142.282 158.242 151.742 158.242 155.922Z" fill="#A6BDE6"/>
<path d="M181.412 156.023C181.412 162.193 177.352 167.209 172.337 167.209C167.319 167.209 163.259 162.193 163.259 156.023C163.259 149.848 167.319 135.908 172.337 135.908C177.352 135.908 181.412 149.848 181.412 156.023Z" fill="#8B9DD7"/>
<path d="M163.943 156.024C163.943 149.943 168.001 136.562 172.337 136.562C176.672 136.562 180.726 149.943 180.726 156.024C180.726 161.83 176.962 166.556 172.337 166.556C167.707 166.556 163.943 161.83 163.943 156.024ZM162.575 156.024C162.575 162.552 166.954 167.863 172.337 167.863C177.717 167.863 182.094 162.552 182.094 156.024C182.094 149.829 177.975 135.252 172.337 135.252C166.696 135.252 162.575 149.829 162.575 156.024Z" fill="#363254"/>
<path d="M165.707 157.146C165.707 151.2 170.618 140.514 174.202 140.514C174.545 140.514 174.881 140.668 175.208 140.894C174.311 139.007 173.284 137.767 172.199 137.767C168.608 137.767 165.707 151.205 165.707 157.146Z" fill="#A6BDE6"/>
<path d="M186.17 159.344C186.17 163.712 183.248 167.25 179.642 167.25C176.037 167.25 173.113 163.712 173.113 159.344C173.113 154.96 176.037 145.091 179.642 145.091C183.248 145.091 186.17 154.96 186.17 159.344Z" fill="#8B9DD7"/>
<path d="M173.795 159.345C173.795 154.619 176.893 145.75 179.642 145.75C182.391 145.75 185.488 154.619 185.488 159.345C185.488 163.344 182.863 166.596 179.642 166.596C176.42 166.596 173.795 163.344 173.795 159.345ZM172.428 159.345C172.428 164.067 175.663 167.904 179.642 167.904C183.62 167.904 186.854 164.067 186.854 159.345C186.854 155.049 183.98 144.439 179.642 144.439C175.302 144.439 172.428 155.049 172.428 159.345Z" fill="#363254"/>
<path d="M175.859 156.741C175.529 153.623 178.589 148.457 180.973 148.082C181.197 148.047 181.426 148.096 181.657 148.185C180.955 147.284 180.166 146.577 179.488 146.855C177.124 147.861 175.529 153.633 175.859 156.741Z" fill="#A6BDE6"/>
<path d="M20.3025 41.1378C19.5779 42.1142 19.8335 43.4566 20.8778 44.1395C21.9181 44.8215 23.3522 44.5779 24.076 43.6042C28.2019 38.0439 37.4818 36.5115 41.8937 38.0909C42.7728 38.407 43.8838 38.2697 44.3695 37.7777C44.8548 37.2923 44.5374 36.6395 43.6563 36.3243C37.6155 34.1589 25.765 33.7666 20.3025 41.1378Z" fill="#363254"/>
<path d="M38.1844 65.5792C34.3741 66.376 31.0148 64.2614 30.6843 60.858C30.3549 57.4489 33.1794 54.0428 36.9907 53.2385C40.8051 52.4389 44.1634 54.5479 44.4964 57.9588C44.8235 61.3669 41.9999 64.7721 38.1844 65.5792ZM46.0635 57.5045C45.6816 53.5329 41.7142 51.089 37.193 52.0325C32.6774 52.9807 29.3229 56.9579 29.7022 60.9238C30.0823 64.8879 34.0511 67.3383 38.5671 66.3986C43.0879 65.4475 46.4436 61.4713 46.0635 57.5045Z" fill="#363254"/>
<path d="M44.2552 58.2344C44.5446 61.2304 42.0739 64.2312 38.7375 64.9311C35.3874 65.6385 32.4499 63.774 32.1513 60.778C31.8643 57.7819 34.3352 54.784 37.6732 54.0832C41.02 53.3777 43.9655 55.2355 44.2552 58.2344Z" fill="#FCFCFC"/>
<path d="M43.7661 58.2633C42.8625 55.9803 40.4631 54.6567 38.4281 55.2926C37.3374 55.6275 36.5902 56.4638 36.2419 57.5089L39.0864 58.9049L36.4731 60.7759C37.4415 62.9291 39.7321 64.1651 41.7089 63.5509C43.752 62.9074 44.6689 60.5454 43.7661 58.2633Z" fill="#363254"/>
<path d="M41.6718 57.2856C42.1781 57.2132 42.7743 57.8209 42.991 58.6647C43.2095 59.4981 42.9743 60.2394 42.4568 60.3184C41.9448 60.3946 41.3498 59.7822 41.1305 58.9412C40.9178 58.1087 41.158 57.3694 41.6718 57.2856Z" fill="white"/>
<path d="M33.3971 53.845C29.8306 56.5749 28.7032 60.5399 31.1128 62.7872C30.9039 62.6987 31.3587 63.2763 31.1661 63.1691C27.3722 61.0826 26.7383 54.8873 30.2311 51.2422C33.2293 48.1097 42.2264 45.7872 42.1597 46.995C41.7885 48.3806 39.1545 50.1397 35.884 52.0512C34.8312 52.6447 34.0721 53.3296 33.3971 53.845" fill="#363254"/>
<path d="M91.9979 92.3214C91.8142 93.2508 92.448 94.0137 93.4042 94.0137H98.8989C99.8568 94.0137 100.787 93.2508 100.972 92.3214L102.435 84.8412C102.619 83.9099 103.548 83.1489 104.507 83.1489H110.453C113.845 83.1489 116.635 82.7952 118.823 82.0868C121.015 81.3823 123.003 80.1951 124.799 78.5311C126.299 77.1614 127.519 75.6498 128.448 73.9932C129.377 72.3423 130.041 70.5174 130.43 68.5213C131.38 63.6787 130.445 60.0759 128.285 57.1983C125.572 53.5955 118.647 53.4046 118.647 53.4046C117.701 53.2635 116.145 53.1431 115.189 53.1431H101.411C100.455 53.1431 99.5248 53.9069 99.3399 54.8391L91.9979 92.3214ZM113.527 59.5933C116.938 59.5933 119.208 60.2189 120.345 61.4671C121.479 62.7154 121.751 64.8602 121.159 67.8958C120.536 71.0593 119.341 73.3197 117.571 74.6715C115.801 76.0223 111.219 76.5114 111.219 76.5114C110.265 76.6149 108.704 76.6986 107.749 76.6986H105.771C104.815 76.6986 104.179 75.9357 104.363 75.0054L107.05 61.2884C107.232 60.3571 108.165 59.5933 109.12 59.5933H113.527Z" fill="#363254"/>
<path d="M91.9979 92.3214C91.8142 93.2508 92.448 94.0137 93.4042 94.0137H98.8989C99.8568 94.0137 100.787 93.2508 100.972 92.3214L102.435 84.8412C102.619 83.9099 103.548 83.1489 104.507 83.1489H110.453C113.845 83.1489 116.635 82.7952 118.823 82.0868C121.015 81.3823 123.003 80.1951 124.799 78.5311C126.299 77.1614 127.519 75.6498 128.448 73.9932C129.377 72.3423 130.041 70.5174 130.43 68.5213C131.38 63.6787 130.445 60.0759 128.285 57.1983C125.572 53.5955 118.647 53.4046 118.647 53.4046C117.701 53.2635 116.145 53.1431 115.189 53.1431H101.411C100.455 53.1431 99.5248 53.9069 99.3399 54.8391L91.9979 92.3214ZM113.527 59.5933C116.938 59.5933 119.208 60.2189 120.345 61.4671C121.479 62.7154 121.751 64.8602 121.159 67.8958C120.536 71.0593 119.341 73.3197 117.571 74.6715C115.801 76.0223 111.219 76.5114 111.219 76.5114C110.265 76.6149 108.704 76.6986 107.749 76.6986H105.771C104.815 76.6986 104.179 75.9357 104.363 75.0054L107.05 61.2884C107.232 60.3571 108.165 59.5933 109.12 59.5933H113.527Z" stroke="white" stroke-width="5.29133"/>
<path d="M139.086 43.9736C139.268 43.0442 140.199 42.2822 141.155 42.2822H146.58C147.538 42.2822 148.171 43.0442 147.987 43.9736L146.523 51.4539C146.34 52.3861 146.977 53.1443 147.931 53.1443H152.382C153.338 53.1443 154.9 53.2261 155.85 53.323C155.85 53.323 162.341 53.3982 164.447 55.7368C166.163 57.6407 166.908 60.2633 166.151 64.1304L162.759 81.4568C162.578 82.3881 161.645 83.1501 160.688 83.1501H155.123C154.166 83.1501 153.531 82.3881 153.714 81.4568L156.595 66.7587C156.778 65.8284 156.982 64.2922 157.053 63.344C157.053 63.344 157.181 61.6047 156.48 60.8588C155.782 60.11 154.291 59.7375 152.013 59.7375H146.637C145.679 59.7375 144.752 60.4976 144.566 61.4288L140.646 81.4568C140.463 82.3881 139.533 83.1501 138.576 83.1501H133.149C132.192 83.1501 131.56 82.3881 131.742 81.4568L139.086 43.9736Z" fill="#363254"/>
<path d="M139.086 43.9736C139.268 43.0442 140.199 42.2822 141.155 42.2822H146.58C147.538 42.2822 148.171 43.0442 147.987 43.9736L146.523 51.4539C146.34 52.3861 146.977 53.1443 147.931 53.1443H152.382C153.338 53.1443 154.9 53.2261 155.85 53.323C155.85 53.323 162.341 53.3982 164.447 55.7368C166.163 57.6407 166.908 60.2633 166.151 64.1304L162.759 81.4568C162.578 82.3881 161.645 83.1501 160.688 83.1501H155.123C154.166 83.1501 153.531 82.3881 153.714 81.4568L156.595 66.7587C156.778 65.8284 156.982 64.2922 157.053 63.344C157.053 63.344 157.181 61.6047 156.48 60.8588C155.782 60.11 154.291 59.7375 152.013 59.7375H146.637C145.679 59.7375 144.752 60.4976 144.566 61.4288L140.646 81.4568C140.463 82.3881 139.533 83.1501 138.576 83.1501H133.149C132.192 83.1501 131.56 82.3881 131.742 81.4568L139.086 43.9736Z" stroke="white" stroke-width="5.29133"/>
<path d="M166.608 92.3214C166.424 93.2508 167.058 94.0137 168.016 94.0137H173.51C174.464 94.0137 175.4 93.2508 175.581 92.3214L177.045 84.8412C177.228 83.9099 178.16 83.1489 179.114 83.1489H185.064C188.454 83.1489 191.242 82.7952 193.436 82.0868C195.622 81.3823 197.614 80.1951 199.406 78.5311C200.911 77.1614 202.125 75.6498 203.058 73.9932C203.988 72.3423 204.649 70.5174 205.041 68.5213C205.99 63.6787 205.131 60.0204 202.894 57.1983C200.118 53.6952 193.255 53.4046 193.255 53.4046C192.308 53.2635 190.752 53.1431 189.796 53.1431H176.019C175.064 53.1431 174.131 53.9069 173.949 54.8391L166.608 92.3214ZM188.139 59.5933C191.547 59.5933 193.818 60.2189 194.957 61.4671C196.089 62.7154 196.36 64.8602 195.766 67.8958C195.144 71.0593 193.954 73.3197 192.181 74.6715C190.409 76.0223 185.826 76.5114 185.826 76.5114C184.877 76.6149 183.317 76.6986 182.358 76.6986H180.378C179.42 76.6986 178.79 75.9357 178.971 75.0054L181.657 61.2884C181.841 60.3571 182.772 59.5933 183.728 59.5933H188.139Z" fill="#363254"/>
<path d="M166.608 92.3214C166.424 93.2508 167.058 94.0137 168.016 94.0137H173.51C174.464 94.0137 175.4 93.2508 175.581 92.3214L177.045 84.8412C177.228 83.9099 178.16 83.1489 179.114 83.1489H185.064C188.454 83.1489 191.242 82.7952 193.436 82.0868C195.622 81.3823 197.614 80.1951 199.406 78.5311C200.911 77.1614 202.125 75.6498 203.058 73.9932C203.988 72.3423 204.649 70.5174 205.041 68.5213C205.99 63.6787 205.131 60.0204 202.894 57.1983C200.118 53.6952 193.255 53.4046 193.255 53.4046C192.308 53.2635 190.752 53.1431 189.796 53.1431H176.019C175.064 53.1431 174.131 53.9069 173.949 54.8391L166.608 92.3214ZM188.139 59.5933C191.547 59.5933 193.818 60.2189 194.957 61.4671C196.089 62.7154 196.36 64.8602 195.766 67.8958C195.144 71.0593 193.954 73.3197 192.181 74.6715C190.409 76.0223 185.826 76.5114 185.826 76.5114C184.877 76.6149 183.317 76.6986 182.358 76.6986H180.378C179.42 76.6986 178.79 75.9357 178.971 75.0054L181.657 61.2884C181.841 60.3571 182.772 59.5933 183.728 59.5933H188.139Z" stroke="white" stroke-width="5.29133"/>
<path d="M91.9979 92.3214C91.8142 93.2508 92.448 94.0137 93.4042 94.0137H98.8989C99.8568 94.0137 100.787 93.2508 100.972 92.3214L102.435 84.8412C102.619 83.9099 103.548 83.1489 104.507 83.1489H110.453C113.845 83.1489 116.635 82.7952 118.823 82.0868C121.015 81.3823 123.003 80.1951 124.799 78.5311C126.299 77.1614 127.519 75.6498 128.448 73.9932C129.377 72.3423 130.041 70.5174 130.43 68.5213C131.38 63.6787 130.445 60.0759 128.285 57.1983C125.572 53.5955 118.647 53.4046 118.647 53.4046C117.701 53.2635 116.145 53.1431 115.189 53.1431H101.411C100.455 53.1431 99.5248 53.9069 99.3399 54.8391L91.9979 92.3214ZM113.527 59.5933C116.938 59.5933 119.208 60.2189 120.345 61.4671C121.479 62.7154 121.751 64.8602 121.159 67.8958C120.536 71.0593 119.341 73.3197 117.571 74.6715C115.801 76.0223 111.219 76.5114 111.219 76.5114C110.265 76.6149 108.704 76.6986 107.749 76.6986H105.771C104.815 76.6986 104.179 75.9357 104.363 75.0054L107.05 61.2884C107.232 60.3571 108.165 59.5933 109.12 59.5933H113.527Z" fill="#363254"/>
<path d="M139.086 43.9736C139.268 43.0442 140.199 42.2822 141.155 42.2822H146.58C147.538 42.2822 148.171 43.0442 147.987 43.9736L146.523 51.4539C146.34 52.3861 146.977 53.1443 147.931 53.1443H152.382C153.338 53.1443 154.9 53.2261 155.85 53.323C155.85 53.323 162.341 53.3982 164.447 55.7368C166.163 57.6407 166.908 60.2633 166.151 64.1304L162.759 81.4568C162.578 82.3881 161.645 83.1501 160.688 83.1501H155.123C154.166 83.1501 153.531 82.3881 153.714 81.4568L156.595 66.7587C156.778 65.8284 156.982 64.2922 157.053 63.344C157.053 63.344 157.181 61.6047 156.48 60.8588C155.782 60.11 154.291 59.7375 152.013 59.7375H146.637C145.679 59.7375 144.752 60.4976 144.566 61.4288L140.646 81.4568C140.463 82.3881 139.533 83.1501 138.576 83.1501H133.149C132.192 83.1501 131.56 82.3881 131.742 81.4568L139.086 43.9736Z" fill="#363254"/>
<path d="M166.608 92.3214C166.424 93.2508 167.058 94.0137 168.016 94.0137H173.51C174.464 94.0137 175.4 93.2508 175.581 92.3214L177.045 84.8412C177.228 83.9099 178.16 83.1489 179.114 83.1489H185.064C188.454 83.1489 191.242 82.7952 193.436 82.0868C195.622 81.3823 197.614 80.1951 199.406 78.5311C200.911 77.1614 202.125 75.6498 203.058 73.9932C203.988 72.3423 204.649 70.5174 205.041 68.5213C205.99 63.6787 205.131 60.0204 202.894 57.1983C200.118 53.6952 193.255 53.4046 193.255 53.4046C192.308 53.2635 190.752 53.1431 189.796 53.1431H176.019C175.064 53.1431 174.131 53.9069 173.949 54.8391L166.608 92.3214ZM188.139 59.5933C191.547 59.5933 193.818 60.2189 194.957 61.4671C196.089 62.7154 196.36 64.8602 195.766 67.8958C195.144 71.0593 193.954 73.3197 192.181 74.6715C190.409 76.0223 185.826 76.5114 185.826 76.5114C184.877 76.6149 183.317 76.6986 182.358 76.6986H180.378C179.42 76.6986 178.79 75.9357 178.971 75.0054L181.657 61.2884C181.841 60.3571 182.772 59.5933 183.728 59.5933H188.139Z" fill="#363254"/>
<path d="M55.0906 19.1598C55.0906 19.1598 71.3581 8.06642 81.633 4.2642C84.9079 3.05166 108.537 -3.1399 112.367 37.3281C114.461 59.4859 110.69 74.7898 92.3721 77.562C81.4097 79.2232 83.1071 87.3271 83.1071 87.3271" fill="url(#paint10_linear_320_448)"/>
<path d="M80.8901 2.43305C70.4955 6.28137 54.5729 17.1011 53.8982 17.5611C52.9773 18.1894 52.7616 19.4161 53.4203 20.2975C54.0768 21.1799 55.3598 21.3849 56.2814 20.7556C56.4419 20.6493 72.4583 9.76377 82.369 6.09323C82.679 5.98035 89.9731 3.3615 96.9741 7.52025C104.263 11.8521 108.877 22.2184 110.327 37.5054C112.634 61.9367 107.168 73.334 92.0518 75.6245C87.7663 76.2717 84.647 77.9028 82.7765 80.4775C80.3207 83.8479 81.0609 87.557 81.0957 87.7141C81.3184 88.7686 82.386 89.4487 83.4915 89.2465C84.5985 89.0452 85.325 88.017 85.1219 86.9569C85.1169 86.938 84.7089 84.6541 86.1741 82.6787C87.3881 81.0428 89.5805 79.9723 92.6928 79.4992C115.167 76.0977 116.107 55.0801 114.414 37.1507C112.822 20.3511 107.68 9.25956 99.1402 4.18648C90.567 -0.9073 81.8573 2.07559 80.8901 2.43305Z" fill="#363254"/>
<path d="M71.7316 16.2232C90.1504 4.79866 100.376 10.6403 100.376 10.6403C92.3669 3.37728 83.3579 5.78448 81.3656 6.52574C71.1258 10.328 51.3503 24.3798 51.3503 24.3798C51.3503 24.3798 48.6763 29.0842 54.0047 28.0636C54.0047 28.0636 65.5952 20.032 71.7316 16.2232Z" fill="url(#paint11_linear_320_448)"/>
<path d="M65.0851 70.1356C64.925 79.4107 61.829 87.857 57 92.1653C54.809 94.1229 52.3651 95.0918 49.9259 94.9733C49.1734 94.9328 48.5322 95.4869 48.4889 96.2084C48.453 96.9327 49.0316 97.546 49.7866 97.5836C52.9822 97.7436 56.1204 96.532 58.8675 94.0796C64.2196 89.301 67.6494 80.1425 67.8198 70.1741C67.8346 69.4554 67.2337 68.8581 66.4772 68.8468C65.7208 68.8364 65.0987 69.4131 65.0851 70.1356Z" fill="#363254"/>
<path d="M71.01 63.513C69.9798 65.8563 68.1794 67.3491 66.0661 67.5984C64.006 67.8392 61.9128 66.8835 60.4651 65.0388C60.0142 64.4622 59.1537 64.3436 58.5501 64.7782C57.9466 65.2109 57.8233 66.0312 58.2778 66.6079C60.321 69.2145 63.3591 70.555 66.4019 70.1975C69.5149 69.825 72.1111 67.7583 73.5333 64.5252C73.8249 63.8583 73.4949 63.0972 72.8013 62.8141C72.1033 62.5347 71.305 62.848 71.01 63.513Z" fill="#363254"/>
<defs>
<linearGradient id="paint0_linear_320_448" x1="101.602" y1="61.6516" x2="183.708" y2="123.343" gradientUnits="userSpaceOnUse">
<stop stop-color="#8C9BD6"/>
<stop offset="1" stop-color="#505E9B"/>
</linearGradient>
<linearGradient id="paint1_linear_320_448" x1="155.618" y1="-8.56324" x2="238.406" y2="53.6408" gradientUnits="userSpaceOnUse">
<stop stop-color="#808FD0"/>
<stop offset="1" stop-color="#505E9B"/>
</linearGradient>
<linearGradient id="paint2_linear_320_448" x1="64.2328" y1="109.896" x2="145.979" y2="171.316" gradientUnits="userSpaceOnUse">
<stop stop-color="#8C9BD6"/>
<stop offset="1" stop-color="#505E9B"/>
</linearGradient>
<linearGradient id="paint3_linear_320_448" x1="95.1723" y1="70.5916" x2="176.917" y2="132.012" gradientUnits="userSpaceOnUse">
<stop stop-color="#8C9BD6"/>
<stop offset="1" stop-color="#505E9B"/>
</linearGradient>
<linearGradient id="paint4_linear_320_448" x1="99.4293" y1="63.4364" x2="178.779" y2="123.057" gradientUnits="userSpaceOnUse">
<stop stop-color="#808FD0"/>
<stop offset="1" stop-color="#505E9B"/>
</linearGradient>
<linearGradient id="paint5_linear_320_448" x1="85.6998" y1="82.9647" x2="168.221" y2="144.968" gradientUnits="userSpaceOnUse">
<stop stop-color="#8C9BD6"/>
<stop offset="1" stop-color="#505E9B"/>
</linearGradient>
<linearGradient id="paint6_linear_320_448" x1="-27.9927" y1="62.5759" x2="26.3578" y2="142.439" gradientUnits="userSpaceOnUse">
<stop stop-color="#FAFAFD"/>
<stop offset="1" stop-color="#8892D2"/>
</linearGradient>
<linearGradient id="paint7_linear_320_448" x1="62.4967" y1="-3.15097" x2="125.827" y2="89.9075" gradientUnits="userSpaceOnUse">
<stop stop-color="#FAFAFD"/>
<stop offset="1" stop-color="#8892D2"/>
</linearGradient>
<linearGradient id="paint8_linear_320_448" x1="62.9284" y1="111.92" x2="144.632" y2="173.308" gradientUnits="userSpaceOnUse">
<stop stop-color="#8C9BD6"/>
<stop offset="1" stop-color="#505E9B"/>
</linearGradient>
<linearGradient id="paint9_linear_320_448" x1="100.112" y1="63.556" x2="182.099" y2="125.158" gradientUnits="userSpaceOnUse">
<stop stop-color="#8C9BD6"/>
<stop offset="1" stop-color="#505E9B"/>
</linearGradient>
<linearGradient id="paint10_linear_320_448" x1="105.035" y1="57.2132" x2="186.897" y2="118.721" gradientUnits="userSpaceOnUse">
<stop stop-color="#8C9BD6"/>
<stop offset="1" stop-color="#505E9B"/>
</linearGradient>
<linearGradient id="paint11_linear_320_448" x1="60.9445" y1="-2.17368" x2="125.669" y2="92.9332" gradientUnits="userSpaceOnUse">
<stop stop-color="#FAFAFD"/>
<stop offset="1" stop-color="#8892D2"/>
</linearGradient>
</defs>
</svg>
