<svg width="375" height="376" viewBox="0 0 375 376" fill="none" xmlns="http://www.w3.org/2000/svg">
<g filter="url(#filter0_d_320_563)">
<rect x="10" width="355" height="355" rx="10" fill="white"/>
<path d="M175.494 286.924C175.494 287.969 175.242 288.949 174.738 289.864C174.252 290.779 173.478 291.516 172.414 292.076C171.368 292.636 170.043 292.916 168.438 292.916H165.162V300.42H161.242V280.876H168.438C169.95 280.876 171.238 281.137 172.302 281.66C173.366 282.183 174.159 282.901 174.682 283.816C175.223 284.731 175.494 285.767 175.494 286.924ZM168.27 289.752C169.352 289.752 170.155 289.509 170.678 289.024C171.2 288.52 171.462 287.82 171.462 286.924C171.462 285.02 170.398 284.068 168.27 284.068H165.162V289.752H168.27ZM195.609 280.876V300.42H191.689V292.104H183.317V300.42H179.397V280.876H183.317V288.912H191.689V280.876H195.609ZM214.839 286.924C214.839 287.969 214.587 288.949 214.083 289.864C213.598 290.779 212.823 291.516 211.759 292.076C210.714 292.636 209.389 292.916 207.783 292.916H204.507V300.42H200.587V280.876H207.783C209.295 280.876 210.583 281.137 211.647 281.66C212.711 282.183 213.505 282.901 214.027 283.816C214.569 284.731 214.839 285.767 214.839 286.924ZM207.615 289.752C208.698 289.752 209.501 289.509 210.023 289.024C210.546 288.52 210.807 287.82 210.807 286.924C210.807 285.02 209.743 284.068 207.615 284.068H204.507V289.752H207.615Z" fill="#212529"/>
<path d="M96.6284 103.294C96.6284 103.294 108.741 89.996 117.13 84.4846C119.803 82.7302 139.683 72.3545 152.449 108.065C159.433 127.617 159.55 142.181 143.675 148.392C134.169 152.113 137.566 159.078 137.566 159.078" fill="url(#paint0_linear_320_563)"/>
<path d="M115.97 82.8651C107.46 88.4555 95.5799 101.455 95.0786 102.004C94.3358 102.822 94.4229 104.064 95.2784 104.775C96.1315 105.486 97.4282 105.404 98.172 104.585C98.2928 104.453 110.216 91.4074 118.293 86.1029C118.535 85.9411 124.428 82.1596 131.604 84.4351C139.152 86.8291 145.69 95.2209 150.506 108.7C158.175 130.162 155.9 141.492 142.9 146.574C139.149 148.046 136.68 150.172 135.563 152.906C134.089 156.513 135.642 159.77 135.709 159.91C136.183 160.887 137.388 161.302 138.411 160.854C139.437 160.411 139.892 159.251 139.435 158.266C139.427 158.247 138.55 156.315 139.405 154.291C140.108 152.62 141.806 151.244 144.453 150.211C164.065 142.534 160.064 123.315 154.388 107.427C149.064 92.5334 141.834 83.5461 132.897 80.7091C123.964 77.8748 116.76 82.3487 115.97 82.8651" fill="#363254"/>
<path d="M259.516 110.994H284.956C287.091 110.994 288.82 112.399 288.82 114.126C288.82 115.854 287.091 117.255 284.956 117.255H264.989L259.516 110.994" fill="url(#paint1_linear_320_563)"/>
<path d="M284.957 112.958C286.025 112.958 286.767 113.575 286.767 114.127C286.767 114.678 286.025 115.295 284.957 115.295C284.957 115.295 267.688 115.295 265.948 115.295C265.539 114.831 264.927 114.124 263.907 112.958C269.919 112.958 284.957 112.958 284.957 112.958ZM255.129 109.033L264.03 119.221H284.957C288.22 119.221 290.872 116.936 290.872 114.127C290.872 111.317 288.22 109.033 284.957 109.033H255.129Z" fill="#363254"/>
<path d="M292.828 103.715C296.326 102.062 300.414 102.466 301.968 104.617C303.515 106.773 301.936 109.852 298.439 111.511C294.948 113.162 285.796 115.159 284.244 113C282.691 110.85 289.336 105.367 292.828 103.715Z" fill="#8B9DD7"/>
<path d="M293.736 105.476C296.449 104.195 299.428 104.556 300.278 105.735C300.514 106.065 300.569 106.444 300.446 106.897C300.226 107.716 299.344 108.895 297.527 109.756C294.155 111.35 288.166 112.285 286.315 111.833C286.998 110.312 290.744 106.893 293.736 105.476V105.476ZM291.92 101.959C288.996 103.339 283.047 107.738 282.106 111.216L282.558 114.116C285.368 118.031 296.705 114.523 299.348 113.271C301.981 112.025 303.829 110.061 304.418 107.882C304.84 106.329 304.57 104.776 303.657 103.507C301.514 100.538 296.363 99.8592 291.92 101.959Z" fill="#363254"/>
<path d="M299.043 116.421C302.792 117.662 304.881 120.538 303.724 122.846C302.556 125.158 298.578 126.016 294.831 124.77C291.089 123.531 283.564 118.86 284.726 116.554C285.892 114.238 295.301 115.179 299.043 116.421" fill="#8B9DD7"/>
<path d="M299.717 114.569H299.714H299.717ZM298.371 118.275H298.373C300.387 118.945 301.49 120.06 301.848 120.882C302.12 121.511 301.936 121.879 301.873 122C301.257 123.225 298.397 123.877 295.504 122.917C292.197 121.823 287.751 118.74 286.913 117.322C288.465 116.806 294.753 117.073 298.371 118.275H298.371ZM282.879 115.704L282.881 118.551C284.325 121.879 290.99 125.577 294.161 126.628C298.929 128.213 303.945 126.927 305.571 123.705C305.917 123.01 306.09 122.264 306.09 121.508C306.09 120.795 305.938 120.074 305.633 119.369C304.714 117.257 302.557 115.51 299.714 114.569C296.877 113.626 285.022 111.445 282.879 115.704" fill="#363254"/>
<path d="M299.591 109.307C305.155 109.271 309.687 111.26 309.708 113.754C309.736 116.247 305.251 118.295 299.683 118.331C294.128 118.369 281.537 116.437 281.511 113.947C281.486 111.45 294.034 109.349 299.591 109.307" fill="#8B9DD7"/>
<path d="M307.657 113.772C307.657 113.867 307.568 114.052 307.318 114.295C306.313 115.276 303.487 116.343 299.671 116.367C294.9 116.399 287.353 115.115 284.449 113.923C287.332 112.687 294.842 111.302 299.607 111.27H299.605C304.874 111.235 307.652 113.112 307.657 113.772H307.657ZM299.579 107.342H299.576C295.534 107.371 283.53 108.783 280.45 111.777L279.461 113.966C279.518 119.736 299.497 120.295 299.699 120.295C304.176 120.263 308.218 119.021 310.246 117.048C311.251 116.071 311.774 114.927 311.761 113.733C311.729 109.988 306.605 107.299 299.579 107.342" fill="#363254"/>
<path d="M170.931 173.269V223.673C170.931 236.101 158.497 240.555 143.163 240.555C127.827 240.555 115.399 236.101 115.399 223.673V172.675" fill="url(#paint2_linear_320_563)"/>
<path d="M113.348 172.676V223.674C113.348 235.828 123.934 242.519 143.163 242.519C162.392 242.519 172.982 235.828 172.982 223.674V173.27C172.982 172.186 172.063 171.306 170.931 171.306C169.797 171.306 168.879 172.186 168.879 173.27V223.674C168.879 236.006 154.897 238.593 143.163 238.593C131.434 238.593 117.451 236.006 117.451 223.674V172.676C117.451 171.593 116.532 170.713 115.399 170.713C114.267 170.713 113.348 171.593 113.348 172.676" fill="#363254"/>
<path d="M127.568 223.611C127.568 228.639 124.63 232.727 121.003 232.727C117.376 232.727 114.437 228.639 114.437 223.611C114.437 218.574 117.376 207.201 121.003 207.201C124.63 207.201 127.568 218.574 127.568 223.611" fill="#8B9DD7"/>
<path d="M115.122 223.613C115.122 218.136 118.236 207.857 121.003 207.857C123.77 207.857 126.885 218.136 126.885 223.613C126.885 228.281 124.248 232.075 121.003 232.075C117.761 232.075 115.122 228.281 115.122 223.613ZM113.753 223.613C113.753 229 117.004 233.385 121.003 233.385C125.001 233.385 128.251 229 128.251 223.613C128.251 218.692 125.364 206.546 121.003 206.546C116.644 206.546 113.753 218.692 113.753 223.613Z" fill="#363254"/>
<path d="M116.205 224.521C116.205 219.677 119.759 210.957 122.353 210.957C122.601 210.957 122.845 211.08 123.079 211.267C122.431 209.732 121.688 208.716 120.901 208.716C118.305 208.716 116.205 219.679 116.205 224.521Z" fill="#A6BDE6"/>
<path d="M130.664 228.456C130.664 232.341 128.328 235.491 125.444 235.491C122.557 235.491 120.218 232.341 120.218 228.456C120.218 224.559 122.557 215.785 125.444 215.785C128.328 215.785 130.664 224.559 130.664 228.456Z" fill="#8B9DD7"/>
<path d="M120.902 228.454C120.902 224.382 123.356 216.439 125.445 216.439C127.534 216.439 129.98 224.382 129.98 228.454C129.98 231.971 127.944 234.835 125.445 234.835C122.938 234.835 120.902 231.971 120.902 228.454ZM119.535 228.454C119.535 232.693 122.186 236.144 125.445 236.144C128.698 236.144 131.349 232.693 131.349 228.454C131.349 225.137 129.254 215.128 125.445 215.128C121.629 215.128 119.535 225.137 119.535 228.454Z" fill="#363254"/>
<path d="M122.414 226.141C122.151 223.372 124.6 218.777 126.507 218.441C126.686 218.418 126.87 218.46 127.052 218.536C126.493 217.741 125.861 217.107 125.319 217.355C123.43 218.25 122.151 223.382 122.414 226.141" fill="#A6BDE6"/>
<path d="M255.878 173.885V224.287C255.878 236.717 243.445 241.169 228.111 241.169C212.775 241.169 200.343 236.717 200.343 224.287V173.29" fill="url(#paint3_linear_320_563)"/>
<path d="M198.29 173.289V224.286C198.29 236.438 208.881 243.132 228.111 243.132C236.766 243.132 243.706 241.776 248.741 239.105C254.751 235.914 257.929 230.791 257.929 224.286V173.884C257.929 172.8 257.01 171.922 255.878 171.922C254.745 171.922 253.828 172.8 253.828 173.884V224.286C253.828 229.422 251.511 233.145 246.749 235.674C242.392 237.984 235.948 239.206 228.111 239.206C216.379 239.206 202.396 236.615 202.396 224.286V173.289C202.396 172.204 201.475 171.325 200.343 171.325C199.21 171.325 198.29 172.204 198.29 173.289" fill="#363254"/>
<path d="M212.515 224.227C212.515 229.255 209.577 233.349 205.952 233.349C202.319 233.349 199.383 229.255 199.383 224.227C199.383 219.193 202.319 207.819 205.952 207.819C209.577 207.819 212.515 219.193 212.515 224.227Z" fill="#7483CA"/>
<path d="M200.064 224.225C200.064 221.654 200.843 217.588 201.955 214.339C203.193 210.72 204.725 208.471 205.951 208.471C208.716 208.471 211.831 218.748 211.831 224.225C211.831 228.895 209.194 232.691 205.951 232.691C202.705 232.691 200.064 228.895 200.064 224.225ZM200.655 213.931C199.502 217.296 198.697 221.531 198.697 224.225C198.697 229.614 201.951 234.001 205.951 234.001C209.948 234.001 213.198 229.614 213.198 224.225C213.198 219.304 210.31 207.163 205.951 207.163C203.487 207.163 201.712 210.841 200.655 213.931" fill="#363254"/>
<path d="M201.155 225.141C201.155 220.296 204.706 211.57 207.3 211.57C207.549 211.57 207.792 211.697 208.027 211.881C207.376 210.349 206.636 209.331 205.85 209.331C203.252 209.331 201.155 220.296 201.155 225.141" fill="#839AD6"/>
<path d="M215.613 229.068C215.613 232.958 213.278 236.101 210.391 236.101C207.507 236.101 205.168 232.958 205.168 229.068C205.168 225.172 207.507 216.398 210.391 216.398C213.278 216.398 215.613 225.172 215.613 229.068Z" fill="#7483CA"/>
<path d="M205.852 229.068C205.852 224.996 208.301 217.055 210.391 217.055C212.477 217.055 214.928 224.996 214.928 229.068C214.928 232.587 212.891 235.451 210.391 235.451C207.887 235.451 205.852 232.587 205.852 229.068ZM204.485 229.068C204.485 233.312 207.134 236.759 210.391 236.759C213.647 236.759 216.296 233.312 216.296 229.068C216.296 225.753 214.2 215.746 210.391 215.746C206.578 215.746 204.485 225.753 204.485 229.068Z" fill="#363254"/>
<path d="M207.363 226.754C207.097 223.988 209.547 219.394 211.455 219.056C211.635 219.032 211.819 219.072 211.999 219.15C211.441 218.354 210.808 217.719 210.266 217.968C208.376 218.863 207.097 223.994 207.363 226.754Z" fill="#839AD6"/>
<path d="M147.57 104.431C158.385 121.871 157.232 136.604 142.823 144.327C134.196 148.953 138.945 155.055 138.945 155.055" fill="url(#paint4_linear_320_563)"/>
<path d="M146.524 102.739C145.548 103.293 145.224 104.498 145.805 105.43C151.825 115.134 153.979 123.921 152.039 130.838C150.659 135.755 147.217 139.716 141.822 142.613C138.411 144.439 136.377 146.744 135.772 149.459C134.949 153.148 137.205 156.101 137.301 156.224C137.974 157.089 139.244 157.264 140.154 156.629C141.062 155.993 141.26 154.767 140.602 153.892C140.592 153.875 139.342 152.177 139.793 150.242C140.154 148.693 141.511 147.279 143.825 146.038C150.226 142.604 154.324 137.836 156.003 131.855C158.236 123.892 155.933 114.061 149.334 103.426C148.757 102.493 147.495 102.187 146.524 102.739" fill="#080604"/>
<path d="M210.743 92.0647C210.743 92.0647 192.788 91.8549 127.185 94.011C61.5865 96.166 64.0075 119.498 63.9056 153.005V233.598C63.9056 240.415 69.8609 243.165 77.2091 243.165C84.5562 243.165 90.5204 240.415 90.5204 233.598C90.5204 233.598 92.2145 210.57 93.6771 196.561C96.9491 145.669 158.887 204.929 203.912 202.164C244.827 199.648 277.047 185.641 277.047 152.351C277.047 119.054 255.931 92.0647 210.743 92.0647" fill="url(#paint5_linear_320_563)"/>
<path d="M65.9573 233.599V153.006C65.9573 153.013 65.9625 149.455 65.9625 149.455C65.9736 118.461 65.9825 97.9854 127.255 95.9723C192.007 93.8464 210.538 94.0251 210.719 94.026H210.744C231.374 94.026 248.185 99.9241 259.359 111.081C269.59 121.291 274.996 135.562 274.996 152.352C274.996 188.284 236.269 198.208 203.781 200.206C186.683 201.254 166.514 192.869 148.72 185.469C128.773 177.176 111.547 170.014 100.941 176.231C95.3394 179.514 92.2946 186.125 91.6315 196.442C90.1899 210.241 88.4902 233.228 88.4743 233.462C88.4695 240.214 81.4147 241.204 77.2095 241.204C73.0084 241.204 65.9573 240.214 65.9573 233.599H65.9573ZM127.117 92.0516C61.8799 94.1935 61.8688 117.372 61.8592 149.452L61.854 153V233.599C61.854 240.818 67.5951 245.133 77.2095 245.133C86.8324 245.133 92.5727 240.818 92.5727 233.599C92.5846 233.504 94.2761 210.573 95.7199 196.756C96.3011 187.738 98.7091 182.145 103.084 179.578C111.873 174.43 128.971 181.54 147.084 189.07C165.305 196.647 185.955 205.235 204.044 204.123C252.444 201.146 279.099 182.76 279.099 152.352C279.099 134.532 273.297 119.322 262.322 108.363C250.356 96.4172 232.52 90.1015 210.744 90.1015H210.768C210.589 90.0994 192.013 89.9143 127.117 92.0516" fill="#363254"/>
<path d="M65.6959 155.215C65.7659 162.784 64.6926 228.893 68.9023 232.862C67.5797 229.935 70.473 165.889 70.436 161.864L70.3971 159.508C70.3971 158.387 70.3971 157.282 70.3971 156.181C68.7745 155.586 67.1996 154.856 65.6792 154.019L65.6959 155.215Z" fill="url(#paint6_linear_320_563)"/>
<path d="M210.719 94.2835C210.719 94.2835 193.154 94.0785 128.967 96.1875C64.7828 98.2965 65.7678 121.753 65.7678 153.289L65.7812 154.455C67.2668 155.291 68.8064 156.022 70.3865 156.618C70.4013 126.773 71.6808 104.875 133.588 102.841C197.773 100.732 215.344 100.937 215.344 100.937C239.89 100.937 256.788 109.157 267.31 121.981C257.623 105.385 239.283 94.2835 210.719 94.2835" fill="url(#paint7_linear_320_563)"/>
<path d="M188.363 196.393V232.288C188.363 244.716 175.927 249.18 160.592 249.18C145.257 249.18 132.827 244.716 132.827 232.288V177.654" fill="url(#paint8_linear_320_563)"/>
<path d="M130.776 177.654V232.288C130.776 244.446 141.368 251.141 160.593 251.141C179.823 251.141 190.416 244.446 190.416 232.288V196.393C190.416 195.31 189.495 194.43 188.363 194.43C187.232 194.43 186.312 195.31 186.312 196.393V232.288C186.312 244.627 172.327 247.216 160.593 247.216C148.864 247.216 134.879 244.627 134.879 232.288V177.654C134.879 176.57 133.96 175.692 132.828 175.692C131.695 175.692 130.776 176.57 130.776 177.654" fill="#363254"/>
<path d="M150.294 235.769C150.294 240.445 146.373 244.237 141.532 244.237C136.691 244.237 132.769 240.445 132.769 235.769C132.769 231.089 136.691 220.523 141.532 220.523C146.373 220.523 150.294 231.089 150.294 235.769Z" fill="#8B9DD7"/>
<path d="M133.454 235.769C133.454 231.212 137.36 221.175 141.533 221.175C145.706 221.175 149.612 231.212 149.612 235.769C149.612 240.079 145.99 243.583 141.533 243.583C137.081 243.583 133.454 240.079 133.454 235.769ZM132.085 235.769C132.085 240.798 136.323 244.891 141.533 244.891C146.743 244.891 150.98 240.798 150.98 235.769C150.98 231.027 146.993 219.864 141.533 219.864C136.077 219.864 132.085 231.027 132.085 235.769Z" fill="#363254"/>
<path d="M134.266 236.328C134.266 232.141 139.172 224.62 142.761 224.62C143.103 224.62 143.435 224.727 143.767 224.891C142.863 223.568 141.842 222.688 140.758 222.688C137.167 222.688 134.266 232.147 134.266 236.328Z" fill="#A6BDE6"/>
<path d="M157.434 236.431C157.434 242.598 153.372 247.615 148.362 247.615C143.345 247.615 139.284 242.598 139.284 236.431C139.284 230.257 143.345 216.313 148.362 216.313C153.372 216.313 157.434 230.257 157.434 236.431Z" fill="#8B9DD7"/>
<path d="M139.966 236.43C139.966 230.348 144.027 216.964 148.362 216.964C152.695 216.964 156.75 230.348 156.75 236.43C156.75 242.234 152.988 246.958 148.362 246.958C143.734 246.958 139.966 242.234 139.966 236.43ZM138.599 236.43C138.599 242.956 142.979 248.268 148.362 248.268C153.742 248.268 158.118 242.956 158.118 236.43C158.118 230.232 153.998 215.659 148.362 215.659C142.724 215.659 138.599 230.232 138.599 236.43" fill="#363254"/>
<path d="M141.729 237.55C141.729 231.604 146.64 220.918 150.226 220.918C150.567 220.918 150.904 221.072 151.23 221.3C150.332 219.413 149.305 218.169 148.222 218.169C144.631 218.169 141.729 231.613 141.729 237.55" fill="#A6BDE6"/>
<path d="M162.195 239.752C162.195 244.118 159.272 247.656 155.665 247.656C152.06 247.656 149.136 244.118 149.136 239.752C149.136 235.366 152.06 225.5 155.665 225.5C159.272 225.5 162.195 235.366 162.195 239.752Z" fill="#8B9DD7"/>
<path d="M149.82 239.75C149.82 235.022 152.92 226.152 155.665 226.152C158.417 226.152 161.511 235.022 161.511 239.75C161.511 243.75 158.891 246.998 155.665 246.998C152.443 246.998 149.82 243.75 149.82 239.75ZM148.452 239.75C148.452 244.47 151.69 248.308 155.665 248.308C159.647 248.308 162.878 244.47 162.878 239.75C162.878 235.452 160.004 224.844 155.665 224.844C151.328 224.844 148.452 235.452 148.452 239.75" fill="#363254"/>
<path d="M151.882 237.144C151.551 234.027 154.612 228.858 156.996 228.485C157.221 228.449 157.449 228.502 157.68 228.588C156.98 227.689 156.189 226.977 155.511 227.26C153.148 228.267 151.551 234.037 151.882 237.144" fill="#A6BDE6"/>
<path d="M273.338 171.726V230.884C273.338 243.311 260.903 247.772 245.568 247.772C230.232 247.772 217.804 243.311 217.804 230.884V196.894" fill="url(#paint9_linear_320_563)"/>
<path d="M271.284 171.726V230.883C271.284 243.221 257.299 245.808 245.568 245.808C233.84 245.808 219.856 243.221 219.856 230.883V196.894C219.856 195.81 218.937 194.93 217.804 194.93C216.672 194.93 215.753 195.81 215.753 196.894V230.883C215.753 243.04 226.341 249.737 245.568 249.737C264.797 249.737 275.388 243.04 275.388 230.883V171.726C275.388 170.641 274.471 169.765 273.338 169.765C272.204 169.765 271.284 170.641 271.284 171.726" fill="#363254"/>
<path d="M235.272 234.364C235.272 239.036 231.35 242.827 226.509 242.827C221.668 242.827 217.747 239.036 217.747 234.364C217.747 229.683 221.668 219.115 226.509 219.115C231.35 219.115 235.272 229.683 235.272 234.364Z" fill="#8B9DD7"/>
<path d="M218.431 234.365C218.431 229.805 222.336 219.773 226.509 219.773C230.684 219.773 234.589 229.805 234.589 234.365C234.589 238.671 230.963 242.177 226.509 242.177C222.055 242.177 218.431 238.671 218.431 234.365V234.365ZM217.063 234.365C217.063 239.393 221.299 243.485 226.509 243.485C231.718 243.485 235.956 239.393 235.956 234.365C235.956 229.622 231.968 218.462 226.509 218.462C221.052 218.462 217.063 229.622 217.063 234.365Z" fill="#363254"/>
<path d="M219.242 234.922C219.242 230.737 224.147 223.216 227.737 223.216C228.08 223.216 228.411 223.322 228.743 223.484C227.84 222.161 226.819 221.282 225.734 221.282C222.144 221.282 219.242 230.742 219.242 234.922" fill="#A6BDE6"/>
<path d="M242.412 235.023C242.412 241.193 238.352 246.209 233.337 246.209C228.319 246.209 224.259 241.193 224.259 235.023C224.259 228.848 228.319 214.908 233.337 214.908C238.352 214.908 242.412 228.848 242.412 235.023Z" fill="#8B9DD7"/>
<path d="M224.943 235.024C224.943 228.943 229.001 215.562 233.337 215.562C237.672 215.562 241.726 228.943 241.726 235.024C241.726 240.83 237.962 245.556 233.337 245.556C228.707 245.556 224.943 240.83 224.943 235.024ZM223.575 235.024C223.575 241.552 227.954 246.863 233.337 246.863C238.717 246.863 243.094 241.552 243.094 235.024C243.094 228.829 238.975 214.252 233.337 214.252C227.696 214.252 223.575 228.829 223.575 235.024Z" fill="#363254"/>
<path d="M226.707 236.146C226.707 230.2 231.618 219.514 235.202 219.514C235.545 219.514 235.881 219.668 236.208 219.894C235.311 218.007 234.284 216.767 233.199 216.767C229.608 216.767 226.707 230.205 226.707 236.146Z" fill="#A6BDE6"/>
<path d="M247.17 238.344C247.17 242.712 244.248 246.25 240.642 246.25C237.037 246.25 234.113 242.712 234.113 238.344C234.113 233.96 237.037 224.091 240.642 224.091C244.248 224.091 247.17 233.96 247.17 238.344Z" fill="#8B9DD7"/>
<path d="M234.795 238.345C234.795 233.619 237.893 224.75 240.642 224.75C243.391 224.75 246.488 233.619 246.488 238.345C246.488 242.344 243.863 245.596 240.642 245.596C237.42 245.596 234.795 242.344 234.795 238.345ZM233.428 238.345C233.428 243.067 236.663 246.904 240.642 246.904C244.62 246.904 247.854 243.067 247.854 238.345C247.854 234.049 244.98 223.439 240.642 223.439C236.302 223.439 233.428 234.049 233.428 238.345" fill="#363254"/>
<path d="M236.859 235.741C236.529 232.623 239.589 227.457 241.973 227.082C242.197 227.047 242.426 227.096 242.657 227.185C241.955 226.284 241.166 225.577 240.488 225.855C238.124 226.861 236.529 232.633 236.859 235.741" fill="#A6BDE6"/>
<path d="M81.3025 120.138C80.5779 121.114 80.8335 122.457 81.8778 123.139C82.9181 123.821 84.3522 123.578 85.076 122.604C89.2019 117.044 98.4818 115.512 102.894 117.091C103.773 117.407 104.884 117.27 105.37 116.778C105.855 116.292 105.537 115.639 104.656 115.324C98.6155 113.159 86.765 112.767 81.3025 120.138" fill="#363254"/>
<path d="M99.1844 144.579C95.3741 145.376 92.0148 143.261 91.6843 139.858C91.3549 136.449 94.1794 133.043 97.9907 132.238C101.805 131.439 105.163 133.548 105.496 136.959C105.824 140.367 103 143.772 99.1844 144.579V144.579ZM107.063 136.504C106.682 132.533 102.714 130.089 98.193 131.033C93.6774 131.981 90.3229 135.958 90.7022 139.924C91.0823 143.888 95.0511 146.338 99.5671 145.399C104.088 144.448 107.444 140.471 107.063 136.504" fill="#363254"/>
<path d="M105.255 137.234C105.545 140.23 103.074 143.231 99.7375 143.931C96.3874 144.638 93.4499 142.774 93.1513 139.778C92.8643 136.782 95.3352 133.784 98.6732 133.083C102.02 132.378 104.966 134.235 105.255 137.234Z" fill="#FCFCFC"/>
<path d="M104.766 137.263C103.863 134.98 101.463 133.657 99.4281 134.293C98.3374 134.628 97.5902 135.464 97.2419 136.509L100.086 137.905L97.4731 139.776C98.4415 141.929 100.732 143.165 102.709 142.551C104.752 141.907 105.669 139.545 104.766 137.263Z" fill="#363254"/>
<path d="M102.672 136.286C103.178 136.213 103.774 136.821 103.991 137.665C104.21 138.498 103.974 139.239 103.457 139.318C102.945 139.395 102.35 138.782 102.131 137.941C101.918 137.109 102.158 136.369 102.672 136.286Z" fill="white"/>
<path d="M94.3971 132.845C90.8306 135.575 89.7032 139.54 92.1128 141.787C91.9039 141.699 92.3587 142.276 92.1661 142.169C88.3722 140.083 87.7383 133.887 91.2311 130.242C94.2293 127.11 103.226 124.787 103.16 125.995C102.789 127.381 100.155 129.14 96.884 131.051C95.8312 131.645 95.0721 132.33 94.3971 132.845" fill="#363254"/>
<path d="M152.998 171.321C152.814 172.251 153.448 173.014 154.404 173.014H159.899C160.857 173.014 161.787 172.251 161.972 171.321L163.435 163.841C163.619 162.91 164.548 162.149 165.507 162.149H171.453C174.845 162.149 177.635 161.795 179.823 161.087C182.015 160.382 184.003 159.195 185.799 157.531C187.299 156.161 188.519 154.65 189.448 152.993C190.377 151.342 191.041 149.517 191.43 147.521C192.38 142.679 191.445 139.076 189.285 136.198C186.572 132.596 179.647 132.405 179.647 132.405C178.701 132.263 177.145 132.143 176.189 132.143H162.411C161.455 132.143 160.525 132.907 160.34 133.839L152.998 171.321ZM174.527 138.593C177.938 138.593 180.208 139.219 181.345 140.467C182.479 141.715 182.751 143.86 182.159 146.896C181.536 150.059 180.341 152.32 178.571 153.671C176.801 155.022 172.219 155.511 172.219 155.511C171.265 155.615 169.704 155.699 168.749 155.699H166.771C165.815 155.699 165.179 154.936 165.363 154.005L168.05 140.288C168.232 139.357 169.165 138.593 170.12 138.593H174.527" fill="#363254"/>
<path d="M152.998 171.321C152.814 172.251 153.448 173.014 154.404 173.014H159.899C160.857 173.014 161.787 172.251 161.972 171.321L163.435 163.841C163.619 162.91 164.548 162.149 165.507 162.149H171.453C174.845 162.149 177.635 161.795 179.823 161.087C182.015 160.382 184.003 159.195 185.799 157.531C187.299 156.161 188.519 154.65 189.448 152.993C190.377 151.342 191.041 149.517 191.43 147.521C192.38 142.679 191.445 139.076 189.285 136.198C186.572 132.596 179.647 132.405 179.647 132.405C178.701 132.263 177.145 132.143 176.189 132.143H162.411C161.455 132.143 160.525 132.907 160.34 133.839L152.998 171.321ZM174.527 138.593C177.938 138.593 180.208 139.219 181.345 140.467C182.479 141.715 182.751 143.86 182.159 146.896C181.536 150.059 180.341 152.32 178.571 153.671C176.801 155.022 172.219 155.511 172.219 155.511C171.265 155.615 169.704 155.699 168.749 155.699H166.771C165.815 155.699 165.179 154.936 165.363 154.005L168.05 140.288C168.232 139.357 169.165 138.593 170.12 138.593H174.527Z" stroke="white" stroke-width="5.29133"/>
<path d="M200.086 122.974C200.268 122.044 201.199 121.282 202.155 121.282H207.58C208.538 121.282 209.171 122.044 208.987 122.974L207.523 130.454C207.34 131.386 207.977 132.144 208.931 132.144H213.382C214.338 132.144 215.9 132.226 216.85 132.323C216.85 132.323 223.341 132.398 225.447 134.737C227.163 136.641 227.908 139.263 227.151 143.13L223.759 160.457C223.578 161.388 222.645 162.15 221.688 162.15H216.123C215.166 162.15 214.531 161.388 214.714 160.457L217.595 145.759C217.778 144.828 217.982 143.292 218.053 142.344C218.053 142.344 218.181 140.605 217.48 139.859C216.782 139.11 215.291 138.737 213.013 138.737H207.637C206.679 138.737 205.752 139.498 205.566 140.429L201.646 160.457C201.463 161.388 200.533 162.15 199.576 162.15H194.149C193.192 162.15 192.56 161.388 192.742 160.457L200.086 122.974" fill="#363254"/>
<path d="M200.086 122.974C200.268 122.044 201.199 121.282 202.155 121.282H207.58C208.538 121.282 209.171 122.044 208.987 122.974L207.523 130.454C207.34 131.386 207.977 132.144 208.931 132.144H213.382C214.338 132.144 215.9 132.226 216.85 132.323C216.85 132.323 223.341 132.398 225.447 134.737C227.163 136.641 227.908 139.263 227.151 143.13L223.759 160.457C223.578 161.388 222.645 162.15 221.688 162.15H216.123C215.166 162.15 214.531 161.388 214.714 160.457L217.595 145.759C217.778 144.828 217.982 143.292 218.053 142.344C218.053 142.344 218.181 140.605 217.48 139.859C216.782 139.11 215.291 138.737 213.013 138.737H207.637C206.679 138.737 205.752 139.498 205.566 140.429L201.646 160.457C201.463 161.388 200.533 162.15 199.576 162.15H194.149C193.192 162.15 192.56 161.388 192.742 160.457L200.086 122.974Z" stroke="white" stroke-width="5.29133"/>
<path d="M227.608 171.321C227.424 172.251 228.058 173.014 229.016 173.014H234.51C235.464 173.014 236.4 172.251 236.581 171.321L238.045 163.841C238.228 162.91 239.16 162.149 240.114 162.149H246.064C249.454 162.149 252.242 161.795 254.436 161.087C256.622 160.382 258.614 159.195 260.406 157.531C261.911 156.161 263.125 154.65 264.058 152.993C264.988 151.342 265.649 149.517 266.041 147.521C266.99 142.679 266.131 139.02 263.894 136.198C261.118 132.695 254.255 132.405 254.255 132.405C253.308 132.263 251.752 132.143 250.796 132.143H237.019C236.064 132.143 235.131 132.907 234.949 133.839L227.608 171.321ZM249.139 138.593C252.547 138.593 254.818 139.219 255.957 140.467C257.089 141.715 257.36 143.86 256.766 146.896C256.144 150.059 254.954 152.32 253.181 153.671C251.409 155.022 246.826 155.511 246.826 155.511C245.877 155.615 244.317 155.699 243.358 155.699H241.378C240.42 155.699 239.79 154.936 239.971 154.005L242.657 140.288C242.841 139.357 243.772 138.593 244.728 138.593H249.139" fill="#363254"/>
<path d="M227.608 171.321C227.424 172.251 228.058 173.014 229.016 173.014H234.51C235.464 173.014 236.4 172.251 236.581 171.321L238.045 163.841C238.228 162.91 239.16 162.149 240.114 162.149H246.064C249.454 162.149 252.242 161.795 254.436 161.087C256.622 160.382 258.614 159.195 260.406 157.531C261.911 156.161 263.125 154.65 264.058 152.993C264.988 151.342 265.649 149.517 266.041 147.521C266.99 142.679 266.131 139.02 263.894 136.198C261.118 132.695 254.255 132.405 254.255 132.405C253.308 132.263 251.752 132.143 250.796 132.143H237.019C236.064 132.143 235.131 132.907 234.949 133.839L227.608 171.321ZM249.139 138.593C252.547 138.593 254.818 139.219 255.957 140.467C257.089 141.715 257.36 143.86 256.766 146.896C256.144 150.059 254.954 152.32 253.181 153.671C251.409 155.022 246.826 155.511 246.826 155.511C245.877 155.615 244.317 155.699 243.358 155.699H241.378C240.42 155.699 239.79 154.936 239.971 154.005L242.657 140.288C242.841 139.357 243.772 138.593 244.728 138.593H249.139Z" stroke="white" stroke-width="5.29133"/>
<path d="M152.998 171.321C152.814 172.251 153.448 173.014 154.404 173.014H159.899C160.857 173.014 161.787 172.251 161.972 171.321L163.435 163.841C163.619 162.91 164.548 162.149 165.507 162.149H171.453C174.845 162.149 177.635 161.795 179.823 161.087C182.015 160.382 184.003 159.195 185.799 157.531C187.299 156.161 188.519 154.65 189.448 152.993C190.377 151.342 191.041 149.517 191.43 147.521C192.38 142.679 191.445 139.076 189.285 136.198C186.572 132.596 179.647 132.405 179.647 132.405C178.701 132.263 177.145 132.143 176.189 132.143H162.411C161.455 132.143 160.525 132.907 160.34 133.839L152.998 171.321ZM174.527 138.593C177.938 138.593 180.208 139.219 181.345 140.467C182.479 141.715 182.751 143.86 182.159 146.896C181.536 150.059 180.341 152.32 178.571 153.671C176.801 155.022 172.219 155.511 172.219 155.511C171.265 155.615 169.704 155.699 168.749 155.699H166.771C165.815 155.699 165.179 154.936 165.363 154.005L168.05 140.288C168.232 139.357 169.165 138.593 170.12 138.593H174.527" fill="#363254"/>
<path d="M200.086 122.974C200.268 122.044 201.199 121.282 202.155 121.282H207.58C208.538 121.282 209.171 122.044 208.987 122.974L207.523 130.454C207.34 131.386 207.977 132.144 208.931 132.144H213.382C214.338 132.144 215.9 132.226 216.85 132.323C216.85 132.323 223.341 132.398 225.447 134.737C227.163 136.641 227.908 139.263 227.151 143.13L223.759 160.457C223.578 161.388 222.645 162.15 221.688 162.15H216.123C215.166 162.15 214.531 161.388 214.714 160.457L217.595 145.759C217.778 144.828 217.982 143.292 218.053 142.344C218.053 142.344 218.181 140.605 217.48 139.859C216.782 139.11 215.291 138.737 213.013 138.737H207.637C206.679 138.737 205.752 139.498 205.566 140.429L201.646 160.457C201.463 161.388 200.533 162.15 199.576 162.15H194.149C193.192 162.15 192.56 161.388 192.742 160.457L200.086 122.974" fill="#363254"/>
<path d="M227.608 171.321C227.424 172.251 228.058 173.014 229.016 173.014H234.51C235.464 173.014 236.4 172.251 236.581 171.321L238.045 163.841C238.228 162.91 239.16 162.149 240.114 162.149H246.064C249.454 162.149 252.242 161.795 254.436 161.087C256.622 160.382 258.614 159.195 260.406 157.531C261.911 156.161 263.125 154.65 264.058 152.993C264.988 151.342 265.649 149.517 266.041 147.521C266.99 142.679 266.131 139.02 263.894 136.198C261.118 132.695 254.255 132.405 254.255 132.405C253.308 132.263 251.752 132.143 250.796 132.143H237.019C236.064 132.143 235.131 132.907 234.949 133.839L227.608 171.321ZM249.139 138.593C252.547 138.593 254.818 139.219 255.957 140.467C257.089 141.715 257.36 143.86 256.766 146.896C256.144 150.059 254.954 152.32 253.181 153.671C251.409 155.022 246.826 155.511 246.826 155.511C245.877 155.615 244.317 155.699 243.358 155.699H241.378C240.42 155.699 239.79 154.936 239.971 154.005L242.657 140.288C242.841 139.357 243.772 138.593 244.728 138.593H249.139" fill="#363254"/>
<path d="M116.091 98.1598C116.091 98.1598 132.358 87.0664 142.633 83.2642C145.908 82.0517 169.537 75.8601 173.367 116.328C175.461 138.486 171.69 153.79 153.372 156.562C142.41 158.223 144.107 166.327 144.107 166.327" fill="url(#paint10_linear_320_563)"/>
<path d="M141.89 81.433C131.495 85.2814 115.573 96.1011 114.898 96.5611C113.977 97.1894 113.762 98.4161 114.42 99.2975C115.077 100.18 116.36 100.385 117.281 99.7556C117.442 99.6493 133.458 88.7638 143.369 85.0932C143.679 84.9804 150.973 82.3615 157.974 86.5202C165.263 90.8521 169.877 101.218 171.327 116.505C173.634 140.937 168.168 152.334 153.052 154.625C148.766 155.272 145.647 156.903 143.777 159.477C141.321 162.848 142.061 166.557 142.096 166.714C142.318 167.769 143.386 168.449 144.492 168.247C145.599 168.045 146.325 167.017 146.122 165.957C146.117 165.938 145.709 163.654 147.174 161.679C148.388 160.043 150.581 158.972 153.693 158.499C176.167 155.098 177.107 134.08 175.414 116.151C173.822 99.3511 168.68 88.2596 160.14 83.1865C151.567 78.0927 142.857 81.0756 141.89 81.433" fill="#363254"/>
<path d="M132.732 95.2232C151.15 83.7987 161.376 89.6403 161.376 89.6403C153.367 82.3773 144.358 84.7845 142.366 85.5257C132.126 89.328 112.35 103.38 112.35 103.38C112.35 103.38 109.676 108.084 115.005 107.064C115.005 107.064 126.595 99.032 132.732 95.2232" fill="url(#paint11_linear_320_563)"/>
<path d="M126.085 149.136C125.925 158.411 122.829 166.857 118 171.165C115.809 173.123 113.365 174.092 110.926 173.973C110.173 173.933 109.532 174.487 109.489 175.208C109.453 175.933 110.032 176.546 110.787 176.584C113.982 176.744 117.12 175.532 119.867 173.08C125.22 168.301 128.649 159.143 128.82 149.174C128.835 148.455 128.234 147.858 127.477 147.847C126.721 147.836 126.099 148.413 126.085 149.136" fill="#363254"/>
<path d="M132.01 142.513C130.98 144.856 129.179 146.349 127.066 146.598C125.006 146.839 122.913 145.883 121.465 144.039C121.014 143.462 120.154 143.344 119.55 143.778C118.947 144.211 118.823 145.031 119.278 145.608C121.321 148.214 124.359 149.555 127.402 149.197C130.515 148.825 133.111 146.758 134.533 143.525C134.825 142.858 134.495 142.097 133.801 141.814C133.103 141.535 132.305 141.848 132.01 142.513" fill="#363254"/>
</g>
<defs>
<filter id="filter0_d_320_563" x="0" y="0" width="375" height="376" filterUnits="userSpaceOnUse" color-interpolation-filters="sRGB">
<feFlood flood-opacity="0" result="BackgroundImageFix"/>
<feColorMatrix in="SourceAlpha" type="matrix" values="0 0 0 0 0 0 0 0 0 0 0 0 0 0 0 0 0 0 127 0" result="hardAlpha"/>
<feOffset dy="11"/>
<feGaussianBlur stdDeviation="5"/>
<feComposite in2="hardAlpha" operator="out"/>
<feColorMatrix type="matrix" values="0 0 0 0 0 0 0 0 0 0 0 0 0 0 0 0 0 0 0.25 0"/>
<feBlend mode="normal" in2="BackgroundImageFix" result="effect1_dropShadow_320_563"/>
<feBlend mode="normal" in="SourceGraphic" in2="effect1_dropShadow_320_563" result="shape"/>
</filter>
<linearGradient id="paint0_linear_320_563" x1="162.602" y1="140.652" x2="244.708" y2="202.343" gradientUnits="userSpaceOnUse">
<stop stop-color="#8C9BD6"/>
<stop offset="1" stop-color="#505E9B"/>
</linearGradient>
<linearGradient id="paint1_linear_320_563" x1="216.618" y1="70.4368" x2="299.406" y2="132.641" gradientUnits="userSpaceOnUse">
<stop stop-color="#808FD0"/>
<stop offset="1" stop-color="#505E9B"/>
</linearGradient>
<linearGradient id="paint2_linear_320_563" x1="125.233" y1="188.896" x2="206.979" y2="250.316" gradientUnits="userSpaceOnUse">
<stop stop-color="#8C9BD6"/>
<stop offset="1" stop-color="#505E9B"/>
</linearGradient>
<linearGradient id="paint3_linear_320_563" x1="156.172" y1="149.592" x2="237.917" y2="211.012" gradientUnits="userSpaceOnUse">
<stop stop-color="#8C9BD6"/>
<stop offset="1" stop-color="#505E9B"/>
</linearGradient>
<linearGradient id="paint4_linear_320_563" x1="160.429" y1="142.436" x2="239.779" y2="202.057" gradientUnits="userSpaceOnUse">
<stop stop-color="#808FD0"/>
<stop offset="1" stop-color="#505E9B"/>
</linearGradient>
<linearGradient id="paint5_linear_320_563" x1="146.7" y1="161.965" x2="229.221" y2="223.968" gradientUnits="userSpaceOnUse">
<stop stop-color="#8C9BD6"/>
<stop offset="1" stop-color="#505E9B"/>
</linearGradient>
<linearGradient id="paint6_linear_320_563" x1="33.0073" y1="141.576" x2="87.3578" y2="221.439" gradientUnits="userSpaceOnUse">
<stop stop-color="#FAFAFD"/>
<stop offset="1" stop-color="#8892D2"/>
</linearGradient>
<linearGradient id="paint7_linear_320_563" x1="123.497" y1="75.849" x2="186.827" y2="168.907" gradientUnits="userSpaceOnUse">
<stop stop-color="#FAFAFD"/>
<stop offset="1" stop-color="#8892D2"/>
</linearGradient>
<linearGradient id="paint8_linear_320_563" x1="123.928" y1="190.92" x2="205.632" y2="252.308" gradientUnits="userSpaceOnUse">
<stop stop-color="#8C9BD6"/>
<stop offset="1" stop-color="#505E9B"/>
</linearGradient>
<linearGradient id="paint9_linear_320_563" x1="161.112" y1="142.556" x2="243.099" y2="204.158" gradientUnits="userSpaceOnUse">
<stop stop-color="#8C9BD6"/>
<stop offset="1" stop-color="#505E9B"/>
</linearGradient>
<linearGradient id="paint10_linear_320_563" x1="166.035" y1="136.213" x2="247.897" y2="197.721" gradientUnits="userSpaceOnUse">
<stop stop-color="#8C9BD6"/>
<stop offset="1" stop-color="#505E9B"/>
</linearGradient>
<linearGradient id="paint11_linear_320_563" x1="121.945" y1="76.8263" x2="186.669" y2="171.933" gradientUnits="userSpaceOnUse">
<stop stop-color="#FAFAFD"/>
<stop offset="1" stop-color="#8892D2"/>
</linearGradient>
</defs>
</svg>
