<svg width="375" height="376" viewBox="0 0 375 376" fill="none" xmlns="http://www.w3.org/2000/svg">
<g filter="url(#filter0_d_320_561)">
<rect x="10" width="355" height="355" rx="10" fill="white"/>
<path d="M159.656 301.305C158.294 301.305 157.062 301.072 155.96 300.605C154.878 300.138 154.019 299.466 153.384 298.589C152.75 297.712 152.423 296.676 152.404 295.481H156.604C156.66 296.284 156.94 296.918 157.444 297.385C157.967 297.852 158.676 298.085 159.572 298.085C160.487 298.085 161.206 297.87 161.728 297.441C162.251 296.993 162.512 296.414 162.512 295.705C162.512 295.126 162.335 294.65 161.98 294.277C161.626 293.904 161.178 293.614 160.636 293.409C160.114 293.185 159.386 292.942 158.452 292.681C157.183 292.308 156.147 291.944 155.344 291.589C154.56 291.216 153.879 290.665 153.3 289.937C152.74 289.19 152.46 288.201 152.46 286.969C152.46 285.812 152.75 284.804 153.328 283.945C153.907 283.086 154.719 282.433 155.764 281.985C156.81 281.518 158.004 281.285 159.348 281.285C161.364 281.285 162.998 281.78 164.248 282.769C165.518 283.74 166.218 285.102 166.348 286.857H162.036C161.999 286.185 161.71 285.634 161.168 285.205C160.646 284.757 159.946 284.533 159.068 284.533C158.303 284.533 157.687 284.729 157.22 285.121C156.772 285.513 156.548 286.082 156.548 286.829C156.548 287.352 156.716 287.79 157.052 288.145C157.407 288.481 157.836 288.761 158.34 288.985C158.863 289.19 159.591 289.433 160.524 289.713C161.794 290.086 162.83 290.46 163.632 290.833C164.435 291.206 165.126 291.766 165.704 292.513C166.283 293.26 166.572 294.24 166.572 295.453C166.572 296.498 166.302 297.469 165.76 298.365C165.219 299.261 164.426 299.98 163.38 300.521C162.335 301.044 161.094 301.305 159.656 301.305ZM183.075 297.385H175.291L174.003 301.109H169.887L176.915 281.537H181.479L188.507 301.109H184.363L183.075 297.385ZM182.011 294.249L179.183 286.073L176.355 294.249H182.011ZM199.002 301.305C197.639 301.305 196.407 301.072 195.306 300.605C194.223 300.138 193.365 299.466 192.73 298.589C192.095 297.712 191.769 296.676 191.75 295.481H195.95C196.006 296.284 196.286 296.918 196.79 297.385C197.313 297.852 198.022 298.085 198.918 298.085C199.833 298.085 200.551 297.87 201.074 297.441C201.597 296.993 201.858 296.414 201.858 295.705C201.858 295.126 201.681 294.65 201.326 294.277C200.971 293.904 200.523 293.614 199.982 293.409C199.459 293.185 198.731 292.942 197.798 292.681C196.529 292.308 195.493 291.944 194.69 291.589C193.906 291.216 193.225 290.665 192.646 289.937C192.086 289.19 191.806 288.201 191.806 286.969C191.806 285.812 192.095 284.804 192.674 283.945C193.253 283.086 194.065 282.433 195.11 281.985C196.155 281.518 197.35 281.285 198.694 281.285C200.71 281.285 202.343 281.78 203.594 282.769C204.863 283.74 205.563 285.102 205.694 286.857H201.382C201.345 286.185 201.055 285.634 200.514 285.205C199.991 284.757 199.291 284.533 198.414 284.533C197.649 284.533 197.033 284.729 196.566 285.121C196.118 285.513 195.894 286.082 195.894 286.829C195.894 287.352 196.062 287.79 196.398 288.145C196.753 288.481 197.182 288.761 197.686 288.985C198.209 289.19 198.937 289.433 199.87 289.713C201.139 290.086 202.175 290.46 202.978 290.833C203.781 291.206 204.471 291.766 205.05 292.513C205.629 293.26 205.918 294.24 205.918 295.453C205.918 296.498 205.647 297.469 205.106 298.365C204.565 299.261 203.771 299.98 202.726 300.521C201.681 301.044 200.439 301.305 199.002 301.305ZM217.184 301.305C215.822 301.305 214.59 301.072 213.488 300.605C212.406 300.138 211.547 299.466 210.912 298.589C210.278 297.712 209.951 296.676 209.932 295.481H214.132C214.188 296.284 214.468 296.918 214.972 297.385C215.495 297.852 216.204 298.085 217.1 298.085C218.015 298.085 218.734 297.87 219.256 297.441C219.779 296.993 220.04 296.414 220.04 295.705C220.04 295.126 219.863 294.65 219.508 294.277C219.154 293.904 218.706 293.614 218.164 293.409C217.642 293.185 216.914 292.942 215.98 292.681C214.711 292.308 213.675 291.944 212.872 291.589C212.088 291.216 211.407 290.665 210.828 289.937C210.268 289.19 209.988 288.201 209.988 286.969C209.988 285.812 210.278 284.804 210.856 283.945C211.435 283.086 212.247 282.433 213.292 281.985C214.338 281.518 215.532 281.285 216.876 281.285C218.892 281.285 220.526 281.78 221.776 282.769C223.046 283.74 223.746 285.102 223.876 286.857H219.564C219.527 286.185 219.238 285.634 218.696 285.205C218.174 284.757 217.474 284.533 216.596 284.533C215.831 284.533 215.215 284.729 214.748 285.121C214.3 285.513 214.076 286.082 214.076 286.829C214.076 287.352 214.244 287.79 214.58 288.145C214.935 288.481 215.364 288.761 215.868 288.985C216.391 289.19 217.119 289.433 218.052 289.713C219.322 290.086 220.358 290.46 221.16 290.833C221.963 291.206 222.654 291.766 223.232 292.513C223.811 293.26 224.1 294.24 224.1 295.453C224.1 296.498 223.83 297.469 223.288 298.365C222.747 299.261 221.954 299.98 220.908 300.521C219.863 301.044 218.622 301.305 217.184 301.305Z" fill="#212529"/>
<path d="M271.33 176.678C263.166 176.721 256.071 178.687 250.13 181.594C247.95 177.276 245.77 173.429 245.386 170.608C244.958 167.317 244.445 165.308 244.958 161.375C245.471 157.442 247.779 151.843 247.736 151.415C247.694 150.988 247.223 148.979 242.522 148.936C237.82 148.893 233.76 149.834 233.289 151.073C232.819 152.313 231.922 155.134 231.323 158.041C230.511 162.315 221.92 177.576 217.005 185.569C215.423 182.449 214.055 179.713 213.756 177.533C213.329 174.241 212.816 172.232 213.329 168.3C213.842 164.367 216.15 158.767 216.107 158.34C216.064 157.913 215.594 155.903 210.892 155.861C206.191 155.818 202.13 156.758 201.66 157.998C201.19 159.238 200.677 162.144 199.694 164.966C198.711 167.787 187.299 193.263 184.307 199.846C182.768 203.223 181.443 205.916 180.503 207.754C180.503 207.754 180.46 207.882 180.332 208.096C179.52 209.678 179.049 210.533 179.049 210.533C179.049 210.533 179.049 210.533 179.049 210.575C178.408 211.729 177.724 212.798 177.382 212.798C177.126 212.798 176.656 209.72 177.468 205.531C179.178 196.683 183.238 182.919 183.195 182.449C183.195 182.192 183.965 179.798 180.545 178.559C177.211 177.319 176.015 179.371 175.715 179.371C175.416 179.371 175.203 180.098 175.203 180.098C175.203 180.098 178.921 164.624 168.107 164.624C161.354 164.624 152.036 172.019 147.42 178.687C144.514 180.269 138.316 183.645 131.691 187.279C129.169 188.69 126.562 190.1 124.125 191.425C123.954 191.254 123.784 191.041 123.613 190.87C110.533 176.892 86.3412 167.017 87.367 148.252C87.7517 141.413 90.1025 123.459 133.828 101.659C169.817 83.9196 198.454 88.8354 203.413 99.7355C210.508 115.295 188.068 144.191 150.882 148.38C136.692 149.962 129.255 144.49 127.374 142.439C125.408 140.301 125.109 140.173 124.382 140.601C123.185 141.242 123.954 143.165 124.382 144.277C125.493 147.183 130.067 152.313 137.803 154.835C144.642 157.058 161.269 158.297 181.4 150.518C203.925 141.797 221.535 117.561 216.363 97.2563C211.192 76.6528 176.998 69.8562 144.642 81.3548C125.408 88.1942 104.549 98.9661 89.5469 112.987C71.7233 129.658 68.9023 144.148 70.0563 150.218C74.2024 171.762 103.908 185.783 115.791 196.17C115.192 196.512 114.637 196.811 114.166 197.068C108.225 200.017 85.5718 211.858 79.9298 224.382C73.5185 238.574 80.9556 248.747 85.871 250.115C101.13 254.347 116.817 246.738 125.237 234.171C133.657 221.604 132.631 205.275 128.742 197.794C128.699 197.709 128.656 197.623 128.571 197.538C130.109 196.64 131.691 195.7 133.23 194.802C136.264 193.007 139.256 191.34 141.821 189.972C140.368 193.947 139.299 198.692 138.786 205.531C138.145 213.568 141.436 223.998 145.753 228.101C147.676 229.896 149.942 229.939 151.395 229.939C156.439 229.939 158.704 225.75 161.226 220.792C164.303 214.722 167.082 207.669 167.082 207.669C167.082 207.669 163.619 226.733 173.023 226.733C176.442 226.733 179.904 222.288 181.443 220.022C181.443 220.065 181.443 220.065 181.443 220.065C181.443 220.065 181.528 219.937 181.699 219.637C182.041 219.082 182.255 218.74 182.255 218.74C182.255 218.74 182.255 218.697 182.255 218.654C183.623 216.261 186.7 210.832 191.274 201.812C197.172 190.186 202.857 175.652 202.857 175.652C202.857 175.652 203.37 179.2 205.122 185.099C206.148 188.561 208.285 192.366 209.995 196.042C208.627 197.965 207.772 199.034 207.772 199.034C207.772 199.034 207.772 199.034 207.815 199.077C206.704 200.53 205.507 202.112 204.182 203.651C199.523 209.207 193.966 215.577 193.197 217.415C192.3 219.595 192.513 221.176 194.223 222.459C195.462 223.399 197.685 223.527 199.95 223.399C204.139 223.1 207.088 222.074 208.542 221.433C210.807 220.621 213.457 219.381 215.936 217.543C220.51 214.166 223.288 209.336 223.031 202.967C222.903 199.461 221.749 195.956 220.339 192.665C220.766 192.066 221.151 191.468 221.578 190.87C228.802 180.311 234.401 168.727 234.401 168.727C234.401 168.727 234.914 172.275 236.666 178.174C237.521 181.166 239.273 184.415 240.812 187.578C234.016 193.092 229.827 199.504 228.331 203.693C225.639 211.473 227.733 214.978 231.708 215.79C233.503 216.175 236.068 215.32 237.948 214.508C240.342 213.739 243.163 212.413 245.856 210.447C250.429 207.07 254.832 202.368 254.575 195.999C254.447 193.092 253.678 190.228 252.609 187.45C258.379 185.056 265.816 183.731 275.305 184.842C295.651 187.236 299.668 199.932 298.899 205.275C298.13 210.618 293.855 213.525 292.445 214.422C291.034 215.32 290.564 215.619 290.693 216.261C290.863 217.201 291.547 217.158 292.744 216.987C294.411 216.688 303.43 212.67 303.814 202.838C304.456 190.271 292.488 176.55 271.33 176.678ZM114.38 229.597C107.627 236.949 98.2236 239.728 94.163 237.377C89.8033 234.855 91.513 223.998 99.805 216.218C104.849 211.473 111.345 207.07 115.662 204.377C116.646 203.779 118.099 202.924 119.851 201.855C120.15 201.684 120.321 201.599 120.321 201.599C120.663 201.385 121.005 201.171 121.347 200.958C124.382 212.071 121.475 221.86 114.38 229.597ZM163.534 196.17C161.183 201.898 156.268 216.56 153.276 215.748C150.711 215.064 149.13 203.95 152.763 192.964C154.601 187.45 158.49 180.867 160.756 178.302C164.432 174.199 168.492 172.831 169.475 174.498C170.715 176.678 164.987 192.579 163.534 196.17ZM204.096 215.577C203.113 216.09 202.173 216.432 201.746 216.175C201.446 216.004 202.173 215.32 202.173 215.32C202.173 215.32 207.259 209.849 209.268 207.369C210.422 205.916 211.79 204.206 213.243 202.283C213.243 202.454 213.243 202.667 213.243 202.838C213.243 209.378 206.917 213.781 204.096 215.577ZM235.384 208.438C234.657 207.925 234.785 206.215 237.222 200.872C238.162 198.778 240.385 195.272 244.189 191.895C244.616 193.263 244.915 194.588 244.873 195.828C244.83 204.078 238.931 207.156 235.384 208.438Z" fill="#CD6799"/>
</g>
<defs>
<filter id="filter0_d_320_561" x="0" y="0" width="375" height="376" filterUnits="userSpaceOnUse" color-interpolation-filters="sRGB">
<feFlood flood-opacity="0" result="BackgroundImageFix"/>
<feColorMatrix in="SourceAlpha" type="matrix" values="0 0 0 0 0 0 0 0 0 0 0 0 0 0 0 0 0 0 127 0" result="hardAlpha"/>
<feOffset dy="11"/>
<feGaussianBlur stdDeviation="5"/>
<feComposite in2="hardAlpha" operator="out"/>
<feColorMatrix type="matrix" values="0 0 0 0 0 0 0 0 0 0 0 0 0 0 0 0 0 0 0.25 0"/>
<feBlend mode="normal" in2="BackgroundImageFix" result="effect1_dropShadow_320_561"/>
<feBlend mode="normal" in="SourceGraphic" in2="effect1_dropShadow_320_561" result="shape"/>
</filter>
</defs>
</svg>
