<svg width="235" height="177" viewBox="0 0 235 177" fill="none" xmlns="http://www.w3.org/2000/svg">
<path d="M202.33 101.678C194.166 101.721 187.071 103.687 181.13 106.594C178.95 102.276 176.77 98.4293 176.386 95.608C175.958 92.3166 175.445 90.3076 175.958 86.375C176.471 82.4423 178.779 76.8426 178.736 76.4152C178.694 75.9877 178.223 73.9787 173.522 73.9359C168.82 73.8932 164.76 74.8336 164.289 76.0732C163.819 77.3129 162.922 80.1341 162.323 83.0408C161.511 87.3154 152.92 102.576 148.005 110.569C146.423 107.449 145.055 104.713 144.756 102.533C144.329 99.2414 143.816 97.2324 144.329 93.2998C144.842 89.3672 147.15 83.7675 147.107 83.34C147.064 82.9126 146.594 80.9035 141.892 80.8608C137.191 80.818 133.13 81.7584 132.66 82.998C132.19 84.2377 131.677 87.1444 130.694 89.9656C129.711 92.7868 118.299 118.263 115.307 124.846C113.768 128.223 112.443 130.916 111.503 132.754C111.503 132.754 111.46 132.882 111.332 133.096C110.52 134.678 110.049 135.533 110.049 135.533C110.049 135.533 110.049 135.533 110.049 135.575C109.408 136.729 108.724 137.798 108.382 137.798C108.126 137.798 107.656 134.72 108.468 130.531C110.178 121.683 114.238 107.919 114.195 107.449C114.195 107.192 114.965 104.798 111.545 103.559C108.211 102.319 107.015 104.371 106.715 104.371C106.416 104.371 106.203 105.098 106.203 105.098C106.203 105.098 109.921 89.6236 99.1073 89.6236C92.354 89.6236 83.0362 97.0187 78.42 103.687C75.5136 105.269 69.3159 108.646 62.6908 112.279C60.169 113.689 57.5618 115.1 55.1255 116.425C54.9545 116.254 54.7835 116.041 54.6125 115.87C41.5334 101.892 17.3412 92.0174 18.367 73.252C18.7517 66.4127 21.1025 48.4594 64.828 26.6591C100.817 8.91959 129.454 13.8354 134.413 24.7355C141.508 40.295 119.068 69.1912 81.8822 73.3802C67.6917 74.9618 60.2545 69.4904 58.3739 67.4386C56.4077 65.3013 56.1085 65.173 55.3819 65.6005C54.1851 66.2417 54.9545 68.1653 55.3819 69.2766C56.4932 72.1834 61.0666 77.3129 68.803 79.8349C75.6418 82.0576 92.2686 83.2973 112.4 75.5175C134.925 66.7974 152.535 42.5605 147.363 22.2563C142.192 1.65281 107.998 -5.14377 75.6418 6.35485C56.4077 13.1942 35.5494 23.9661 20.5469 37.9867C2.72329 54.6576 -0.0977046 69.1484 1.05634 75.2183C5.20235 96.7622 34.9083 110.783 46.7907 121.17C46.1923 121.512 45.6366 121.811 45.1665 122.068C39.2253 125.017 16.5718 136.858 10.9298 149.382C4.51847 163.574 11.9556 173.747 16.871 175.115C32.13 179.347 47.8165 171.738 56.2367 159.171C64.657 146.604 63.6312 130.275 59.7416 122.794C59.6989 122.709 59.6561 122.623 59.5706 122.538C61.1094 121.64 62.6908 120.7 64.2296 119.802C67.2643 118.007 70.2562 116.34 72.8208 114.972C71.3675 118.947 70.299 123.692 69.7861 130.531C69.1449 138.568 72.4361 148.998 76.7531 153.101C78.6765 154.896 80.9418 154.939 82.3951 154.939C87.4387 154.939 89.704 150.75 92.2258 145.792C95.3033 139.722 98.0815 132.669 98.0815 132.669C98.0815 132.669 94.6194 151.733 104.023 151.733C107.442 151.733 110.904 147.288 112.443 145.022C112.443 145.065 112.443 145.065 112.443 145.065C112.443 145.065 112.528 144.937 112.699 144.637C113.041 144.082 113.255 143.74 113.255 143.74C113.255 143.74 113.255 143.697 113.255 143.654C114.623 141.261 117.7 135.832 122.274 126.812C128.172 115.186 133.857 100.652 133.857 100.652C133.857 100.652 134.37 104.2 136.122 110.099C137.148 113.561 139.285 117.366 140.995 121.042C139.627 122.965 138.772 124.034 138.772 124.034C138.772 124.034 138.772 124.034 138.815 124.077C137.704 125.53 136.507 127.112 135.182 128.651C130.523 134.207 124.966 140.577 124.197 142.415C123.3 144.595 123.513 146.176 125.223 147.459C126.462 148.399 128.685 148.527 130.95 148.399C135.139 148.1 138.088 147.074 139.542 146.433C141.807 145.621 144.457 144.381 146.936 142.543C151.51 139.166 154.288 134.336 154.031 127.967C153.903 124.461 152.749 120.956 151.339 117.665C151.766 117.066 152.151 116.468 152.578 115.87C159.802 105.311 165.401 93.7272 165.401 93.7272C165.401 93.7272 165.914 97.2751 167.666 103.174C168.521 106.166 170.273 109.415 171.812 112.578C165.016 118.092 160.827 124.504 159.331 128.693C156.639 136.473 158.733 139.978 162.708 140.79C164.503 141.175 167.068 140.32 168.948 139.508C171.342 138.739 174.163 137.413 176.856 135.447C181.429 132.07 185.832 127.368 185.575 120.999C185.447 118.092 184.678 115.228 183.609 112.45C189.379 110.056 196.816 108.731 206.305 109.842C226.651 112.236 230.668 124.932 229.899 130.275C229.13 135.618 224.855 138.525 223.445 139.422C222.034 140.32 221.564 140.619 221.693 141.261C221.863 142.201 222.547 142.158 223.744 141.987C225.411 141.688 234.43 137.67 234.814 127.838C235.456 115.271 223.488 101.55 202.33 101.678ZM45.3802 154.597C38.6269 161.949 29.2236 164.728 25.163 162.377C20.8033 159.855 22.513 148.998 30.805 141.218C35.8486 136.473 42.3455 132.07 46.6625 129.377C47.6455 128.779 49.0988 127.924 50.8512 126.855C51.1504 126.684 51.3214 126.599 51.3214 126.599C51.6633 126.385 52.0053 126.171 52.3472 125.958C55.3819 137.071 52.4754 146.86 45.3802 154.597ZM94.5339 121.17C92.1831 126.898 87.2677 141.56 84.2757 140.748C81.7112 140.064 80.1297 128.95 83.7628 117.964C85.6008 112.45 89.4903 105.867 91.7557 103.302C95.4315 99.1987 99.492 97.8308 100.475 99.4979C101.715 101.678 95.9872 117.579 94.5339 121.17ZM135.096 140.577C134.113 141.09 133.173 141.432 132.746 141.175C132.446 141.004 133.173 140.32 133.173 140.32C133.173 140.32 138.259 134.849 140.268 132.369C141.422 130.916 142.79 129.206 144.243 127.283C144.243 127.454 144.243 127.667 144.243 127.838C144.243 134.378 137.917 138.781 135.096 140.577ZM166.384 133.438C165.657 132.925 165.785 131.215 168.222 125.872C169.162 123.778 171.385 120.272 175.189 116.895C175.616 118.263 175.915 119.588 175.873 120.828C175.83 129.078 169.931 132.156 166.384 133.438Z" fill="#CD6799"/>
</svg>
