<svg width="100" height="100" viewBox="0 0 100 100" fill="none" xmlns="http://www.w3.org/2000/svg">
<g clip-path="url(#clip0_310_2252)">
<path d="M35.7143 0H64.2857V100H35.7143V0ZM0 100V35.7143H28.5714V100H0ZM14.2857 0C10.4969 0 6.86328 1.5051 4.18419 4.18419C1.5051 6.86328 0 10.4969 0 14.2857C0 18.0745 1.5051 21.7081 4.18419 24.3872C6.86328 27.0663 10.4969 28.5714 14.2857 28.5714C18.0745 28.5714 21.7081 27.0663 24.3872 24.3872C27.0663 21.7081 28.5714 18.0745 28.5714 14.2857C28.5714 10.4969 27.0663 6.86328 24.3872 4.18419C21.7081 1.5051 18.0745 0 14.2857 0ZM71.4286 0H100V28.5714H71.4286V0ZM100 35.7143H71.4286V64.2857H100V35.7143Z" fill="black"/>
</g>
<defs>
<clipPath id="clip0_310_2252">
<rect width="100" height="100" fill="white"/>
</clipPath>
</defs>
</svg>
