<svg width="100" height="100" viewBox="0 0 100 100" fill="none" xmlns="http://www.w3.org/2000/svg">
<g clip-path="url(#clip0_310_1929)">
<path d="M21.4286 7.14286V21.4286H7.14286V7.14286H21.4286ZM0 0V28.5714H28.5714V0H0ZM57.1429 17.8571V32.1429H42.8571V17.8571H57.1429ZM35.7143 10.7143V39.2857H64.2857V10.7143H35.7143ZM21.4286 50V64.2857H7.14286V50H21.4286ZM0 42.8571V71.4286H28.5714V42.8571H0Z" fill="black"/>
<path d="M71.4286 28.5713V49.9999H50V71.4285H28.5714V99.9999H100V28.5713H71.4286ZM57.1429 57.1428H71.4286V71.4285H57.1429V57.1428ZM50 92.857H35.7143V78.5713H50V92.857ZM71.4286 92.857H57.1429V78.5713H71.4286V92.857ZM92.8571 92.857H78.5714V78.5713H92.8571V92.857ZM92.8571 71.4285H78.5714V57.1428H92.8571V71.4285ZM78.5714 49.9999V35.7142H92.8571V49.9999H78.5714Z" fill="black"/>
</g>
<defs>
<clipPath id="clip0_310_1929">
<rect width="100" height="100" fill="white"/>
</clipPath>
</defs>
</svg>
